G04 #@! TF.GenerationSoftware,KiCad,Pcbnew,(5.1.2)-2*
G04 #@! TF.CreationDate,2019-09-12T19:32:37+02:00*
G04 #@! TF.ProjectId,braunAdapterUSBC,62726175-6e41-4646-9170-746572555342,rev?*
G04 #@! TF.SameCoordinates,Original*
G04 #@! TF.FileFunction,Legend,Top*
G04 #@! TF.FilePolarity,Positive*
%FSLAX46Y46*%
G04 Gerber Fmt 4.6, Leading zero omitted, Abs format (unit mm)*
G04 Created by KiCad (PCBNEW (5.1.2)-2) date 2019-09-12 19:32:37*
%MOMM*%
%LPD*%
G04 APERTURE LIST*
%ADD10C,0.200000*%
%ADD11C,0.120000*%
%ADD12C,0.100000*%
%ADD13C,0.150000*%
G04 APERTURE END LIST*
D10*
X-680952Y13747619D02*
X-1252380Y13747619D01*
X-966666Y13747619D02*
X-966666Y14747619D01*
X-1061904Y14604761D01*
X-1157142Y14509523D01*
X-1252380Y14461904D01*
X-300000Y14652380D02*
X-252380Y14700000D01*
X-157142Y14747619D01*
X80952Y14747619D01*
X176190Y14700000D01*
X223809Y14652380D01*
X271428Y14557142D01*
X271428Y14461904D01*
X223809Y14319047D01*
X-347619Y13747619D01*
X271428Y13747619D01*
X557142Y14747619D02*
X890476Y13747619D01*
X1223809Y14747619D01*
X2176190Y14223809D02*
X2128571Y14271428D01*
X2033333Y14319047D01*
X1938095Y14319047D01*
X1842857Y14271428D01*
X1795238Y14223809D01*
X1747619Y14128571D01*
X1747619Y14033333D01*
X1795238Y13938095D01*
X1842857Y13890476D01*
X1938095Y13842857D01*
X2033333Y13842857D01*
X2128571Y13890476D01*
X2176190Y13938095D01*
X2176190Y14319047D02*
X2176190Y13938095D01*
X2223809Y13890476D01*
X2271428Y13890476D01*
X2366666Y13938095D01*
X2414285Y14033333D01*
X2414285Y14271428D01*
X2319047Y14414285D01*
X2176190Y14509523D01*
X1985714Y14557142D01*
X1795238Y14509523D01*
X1652380Y14414285D01*
X1557142Y14271428D01*
X1509523Y14080952D01*
X1557142Y13890476D01*
X1652380Y13747619D01*
X1795238Y13652380D01*
X1985714Y13604761D01*
X2176190Y13652380D01*
X2319047Y13747619D01*
X3033333Y14747619D02*
X3128571Y14747619D01*
X3223809Y14700000D01*
X3271428Y14652380D01*
X3319047Y14557142D01*
X3366666Y14366666D01*
X3366666Y14128571D01*
X3319047Y13938095D01*
X3271428Y13842857D01*
X3223809Y13795238D01*
X3128571Y13747619D01*
X3033333Y13747619D01*
X2938095Y13795238D01*
X2890476Y13842857D01*
X2842857Y13938095D01*
X2795238Y14128571D01*
X2795238Y14366666D01*
X2842857Y14557142D01*
X2890476Y14652380D01*
X2938095Y14700000D01*
X3033333Y14747619D01*
X3795238Y13842857D02*
X3842857Y13795238D01*
X3795238Y13747619D01*
X3747619Y13795238D01*
X3795238Y13842857D01*
X3795238Y13747619D01*
X4747619Y14747619D02*
X4271428Y14747619D01*
X4223809Y14271428D01*
X4271428Y14319047D01*
X4366666Y14366666D01*
X4604761Y14366666D01*
X4700000Y14319047D01*
X4747619Y14271428D01*
X4795238Y14176190D01*
X4795238Y13938095D01*
X4747619Y13842857D01*
X4700000Y13795238D01*
X4604761Y13747619D01*
X4366666Y13747619D01*
X4271428Y13795238D01*
X4223809Y13842857D01*
X5176190Y14033333D02*
X5652380Y14033333D01*
X5080952Y13747619D02*
X5414285Y14747619D01*
X5747619Y13747619D01*
D11*
X-50000Y13250000D02*
X5050000Y13250000D01*
X-50000Y8150000D02*
X5050000Y8150000D01*
X3250000Y5370000D02*
X4750000Y5370000D01*
X4750000Y5370000D02*
X4750000Y-1890000D01*
X-4750000Y5370000D02*
X-4750000Y-1890000D01*
X-4750000Y5370000D02*
X-3250000Y5370000D01*
X2341422Y6190000D02*
X2858578Y6190000D01*
X2341422Y7610000D02*
X2858578Y7610000D01*
X-990000Y11158578D02*
X-990000Y10641422D01*
X-2410000Y11158578D02*
X-2410000Y10641422D01*
X-3000000Y13100000D02*
G75*
G03X-3000000Y13100000I-1200000J0D01*
G01*
X-3000000Y10000000D02*
G75*
G03X-3000000Y10000000I-1200000J0D01*
G01*
D12*
X-3180000Y9025001D02*
X-420000Y9025001D01*
X-420000Y9025001D02*
X-420000Y6735001D01*
X-420000Y6735001D02*
X-3180018Y6735001D01*
X-3180000Y9025022D02*
X-3180000Y6735001D01*
D13*
X-3380000Y8795001D02*
X-3380000Y9225001D01*
X-2950000Y9225001D02*
X-3380000Y9225001D01*
D12*
X2400000Y10228571D02*
X2114285Y10228571D01*
X2114285Y10828571D01*
X2914285Y10228571D02*
X2571428Y10228571D01*
X2742857Y10228571D02*
X2742857Y10828571D01*
X2685714Y10742857D01*
X2628571Y10685714D01*
X2571428Y10657142D01*
X2814285Y6800000D02*
X2842857Y6771428D01*
X2871428Y6685714D01*
X2871428Y6628571D01*
X2842857Y6542857D01*
X2785714Y6485714D01*
X2728571Y6457142D01*
X2614285Y6428571D01*
X2528571Y6428571D01*
X2414285Y6457142D01*
X2357142Y6485714D01*
X2300000Y6542857D01*
X2271428Y6628571D01*
X2271428Y6685714D01*
X2300000Y6771428D01*
X2328571Y6800000D01*
X2871428Y7371428D02*
X2871428Y7028571D01*
X2871428Y7200000D02*
X2271428Y7200000D01*
X2357142Y7142857D01*
X2414285Y7085714D01*
X2442857Y7028571D01*
X-1799999Y10685714D02*
X-1828571Y10657142D01*
X-1914285Y10628571D01*
X-1971428Y10628571D01*
X-2057142Y10657142D01*
X-2114285Y10714285D01*
X-2142857Y10771428D01*
X-2171428Y10885714D01*
X-2171428Y10971428D01*
X-2142857Y11085714D01*
X-2114285Y11142857D01*
X-2057142Y11200000D01*
X-1971428Y11228571D01*
X-1914285Y11228571D01*
X-1828571Y11200000D01*
X-1799999Y11171428D01*
X-1571428Y11171428D02*
X-1542857Y11200000D01*
X-1485714Y11228571D01*
X-1342857Y11228571D01*
X-1285714Y11200000D01*
X-1257142Y11171428D01*
X-1228571Y11114285D01*
X-1228571Y11057142D01*
X-1257142Y10971428D01*
X-1599999Y10628571D01*
X-1228571Y10628571D01*
X4800000Y5428571D02*
X4600000Y5714285D01*
X4457142Y5428571D02*
X4457142Y6028571D01*
X4685714Y6028571D01*
X4742857Y6000000D01*
X4771428Y5971428D01*
X4800000Y5914285D01*
X4800000Y5828571D01*
X4771428Y5771428D01*
X4742857Y5742857D01*
X4685714Y5714285D01*
X4457142Y5714285D01*
X5371428Y5428571D02*
X5028571Y5428571D01*
X5200000Y5428571D02*
X5200000Y6028571D01*
X5142857Y5942857D01*
X5085714Y5885714D01*
X5028571Y5857142D01*
X200000Y5428571D02*
X0Y5714285D01*
X-142857Y5428571D02*
X-142857Y6028571D01*
X85714Y6028571D01*
X142857Y6000000D01*
X171428Y5971428D01*
X200000Y5914285D01*
X200000Y5828571D01*
X171428Y5771428D01*
X142857Y5742857D01*
X85714Y5714285D01*
X-142857Y5714285D01*
X428571Y5971428D02*
X457142Y6000000D01*
X514285Y6028571D01*
X657142Y6028571D01*
X714285Y6000000D01*
X742857Y5971428D01*
X771428Y5914285D01*
X771428Y5857142D01*
X742857Y5771428D01*
X399999Y5428571D01*
X771428Y5428571D01*
X-5228571Y7900000D02*
X-5514285Y7700000D01*
X-5228571Y7557142D02*
X-5828571Y7557142D01*
X-5828571Y7785714D01*
X-5800000Y7842857D01*
X-5771428Y7871428D01*
X-5714285Y7900000D01*
X-5628571Y7900000D01*
X-5571428Y7871428D01*
X-5542857Y7842857D01*
X-5514285Y7785714D01*
X-5514285Y7557142D01*
X-5828571Y8100000D02*
X-5828571Y8471428D01*
X-5600000Y8271428D01*
X-5600000Y8357142D01*
X-5571428Y8414285D01*
X-5542857Y8442857D01*
X-5485714Y8471428D01*
X-5342857Y8471428D01*
X-5285714Y8442857D01*
X-5257142Y8414285D01*
X-5228571Y8357142D01*
X-5228571Y8185714D01*
X-5257142Y8128571D01*
X-5285714Y8100000D01*
X-5228571Y6400000D02*
X-5514285Y6200000D01*
X-5228571Y6057142D02*
X-5828571Y6057142D01*
X-5828571Y6285714D01*
X-5800000Y6342857D01*
X-5771428Y6371428D01*
X-5714285Y6400000D01*
X-5628571Y6400000D01*
X-5571428Y6371428D01*
X-5542857Y6342857D01*
X-5514285Y6285714D01*
X-5514285Y6057142D01*
X-5628571Y6914285D02*
X-5228571Y6914285D01*
X-5857142Y6771428D02*
X-5428571Y6628571D01*
X-5428571Y7000000D01*
X-2257142Y6528571D02*
X-2257142Y6042857D01*
X-2228571Y5985714D01*
X-2200000Y5957142D01*
X-2142857Y5928571D01*
X-2028571Y5928571D01*
X-1971428Y5957142D01*
X-1942857Y5985714D01*
X-1914285Y6042857D01*
X-1914285Y6528571D01*
X-1314285Y5928571D02*
X-1657142Y5928571D01*
X-1485714Y5928571D02*
X-1485714Y6528571D01*
X-1542857Y6442857D01*
X-1600000Y6385714D01*
X-1657142Y6357142D01*
M02*
