G04 #@! TF.GenerationSoftware,KiCad,Pcbnew,(5.1.2)-2*
G04 #@! TF.CreationDate,2019-09-12T19:32:37+02:00*
G04 #@! TF.ProjectId,braunAdapterUSBC,62726175-6e41-4646-9170-746572555342,rev?*
G04 #@! TF.SameCoordinates,Original*
G04 #@! TF.FileFunction,Other,User*
%FSLAX46Y46*%
G04 Gerber Fmt 4.6, Leading zero omitted, Abs format (unit mm)*
G04 Created by KiCad (PCBNEW (5.1.2)-2) date 2019-09-12 19:32:37*
%MOMM*%
%LPD*%
G04 APERTURE LIST*
%ADD10C,0.050000*%
G04 APERTURE END LIST*
D10*
X-300000Y13450000D02*
X-300000Y7950000D01*
X-300000Y7950000D02*
X5300000Y7950000D01*
X5300000Y7950000D02*
X5300000Y13450000D01*
X5300000Y13450000D02*
X-300000Y13450000D01*
X-5390000Y-5730000D02*
X-5390000Y5870000D01*
X5390000Y-5730000D02*
X-5390000Y-5730000D01*
X5390000Y5870000D02*
X5390000Y-5730000D01*
X-5390000Y5870000D02*
X5390000Y5870000D01*
X4280000Y5950000D02*
X920000Y5950000D01*
X4280000Y7850000D02*
X4280000Y5950000D01*
X920000Y7850000D02*
X4280000Y7850000D01*
X920000Y5950000D02*
X920000Y7850000D01*
X-2650000Y12580000D02*
X-750000Y12580000D01*
X-750000Y12580000D02*
X-750000Y9220000D01*
X-750000Y9220000D02*
X-2650000Y9220000D01*
X-2650000Y9220000D02*
X-2650000Y12580000D01*
X5370000Y5970000D02*
X4430000Y5970000D01*
X4430000Y5970000D02*
X4430000Y7830000D01*
X4430000Y7830000D02*
X5370000Y7830000D01*
X5370000Y7830000D02*
X5370000Y5970000D01*
X770000Y7830000D02*
X770000Y5970000D01*
X-170000Y7830000D02*
X770000Y7830000D01*
X-170000Y5970000D02*
X-170000Y7830000D01*
X770000Y5970000D02*
X-170000Y5970000D01*
X-5130000Y8670000D02*
X-3270000Y8670000D01*
X-5130000Y7730000D02*
X-5130000Y8670000D01*
X-3270000Y7730000D02*
X-5130000Y7730000D01*
X-3270000Y8670000D02*
X-3270000Y7730000D01*
X-3270000Y5930000D02*
X-5130000Y5930000D01*
X-3270000Y6870000D02*
X-3270000Y5930000D01*
X-5130000Y6870000D02*
X-3270000Y6870000D01*
X-5130000Y5930000D02*
X-5130000Y6870000D01*
X-2700000Y13100000D02*
G75*
G03X-2700000Y13100000I-1500000J0D01*
G01*
X-2700000Y10000000D02*
G75*
G03X-2700000Y10000000I-1500000J0D01*
G01*
X-3150000Y9125001D02*
X-450000Y9125001D01*
X-3150000Y9125001D02*
X-3150000Y6625001D01*
X-450000Y6625001D02*
X-450000Y9125001D01*
X-450000Y6625001D02*
X-3150000Y6625001D01*
M02*
