G04 #@! TF.GenerationSoftware,KiCad,Pcbnew,(5.1.2)-2*
G04 #@! TF.CreationDate,2019-09-12T19:32:37+02:00*
G04 #@! TF.ProjectId,braunAdapterUSBC,62726175-6e41-4646-9170-746572555342,rev?*
G04 #@! TF.SameCoordinates,Original*
G04 #@! TF.FileFunction,Legend,Bot*
G04 #@! TF.FilePolarity,Positive*
%FSLAX46Y46*%
G04 Gerber Fmt 4.6, Leading zero omitted, Abs format (unit mm)*
G04 Created by KiCad (PCBNEW (5.1.2)-2) date 2019-09-12 19:32:37*
%MOMM*%
%LPD*%
G04 APERTURE LIST*
%ADD10C,0.400000*%
%ADD11C,0.300000*%
G04 APERTURE END LIST*
D10*
X1209523Y13133333D02*
X1304761Y12942857D01*
X1304761Y12561904D01*
X1209523Y12371428D01*
X1019047Y12276190D01*
X923809Y12276190D01*
X733333Y12371428D01*
X638095Y12561904D01*
X638095Y12847619D01*
X542857Y13038095D01*
X352380Y13133333D01*
X257142Y13133333D01*
X66666Y13038095D01*
X-28571Y12847619D01*
X-28571Y12561904D01*
X66666Y12371428D01*
X1304761Y10561904D02*
X257142Y10561904D01*
X66666Y10657142D01*
X-28571Y10847619D01*
X-28571Y11228571D01*
X66666Y11419047D01*
X1209523Y10561904D02*
X1304761Y10752380D01*
X1304761Y11228571D01*
X1209523Y11419047D01*
X1019047Y11514285D01*
X828571Y11514285D01*
X638095Y11419047D01*
X542857Y11228571D01*
X542857Y10752380D01*
X447619Y10561904D01*
X-28571Y9800000D02*
X1304761Y9419047D01*
X352380Y9038095D01*
X1304761Y8657142D01*
X-28571Y8276190D01*
X1304761Y6657142D02*
X257142Y6657142D01*
X66666Y6752380D01*
X-28571Y6942857D01*
X-28571Y7323809D01*
X66666Y7514285D01*
X1209523Y6657142D02*
X1304761Y6847619D01*
X1304761Y7323809D01*
X1209523Y7514285D01*
X1019047Y7609523D01*
X828571Y7609523D01*
X638095Y7514285D01*
X542857Y7323809D01*
X542857Y6847619D01*
X447619Y6657142D01*
X1304761Y5704761D02*
X-28571Y5704761D01*
X-695238Y5704761D02*
X-600000Y5799999D01*
X-504761Y5704761D01*
X-600000Y5609523D01*
X-695238Y5704761D01*
X-504761Y5704761D01*
X-28571Y4942857D02*
X-28571Y3895238D01*
X1304761Y4942857D01*
X1304761Y3895238D01*
X2895238Y11228571D02*
X2800000Y11133333D01*
X2704761Y10942857D01*
X2704761Y10466666D01*
X2800000Y10276190D01*
X2895238Y10180952D01*
X3085714Y10085714D01*
X3276190Y10085714D01*
X3561904Y10180952D01*
X4704761Y11323809D01*
X4704761Y10085714D01*
X2704761Y8847619D02*
X2704761Y8657142D01*
X2800000Y8466666D01*
X2895238Y8371428D01*
X3085714Y8276190D01*
X3466666Y8180952D01*
X3942857Y8180952D01*
X4323809Y8276190D01*
X4514285Y8371428D01*
X4609523Y8466666D01*
X4704761Y8657142D01*
X4704761Y8847619D01*
X4609523Y9038095D01*
X4514285Y9133333D01*
X4323809Y9228571D01*
X3942857Y9323809D01*
X3466666Y9323809D01*
X3085714Y9228571D01*
X2895238Y9133333D01*
X2800000Y9038095D01*
X2704761Y8847619D01*
X4704761Y6276190D02*
X4704761Y7419047D01*
X4704761Y6847619D02*
X2704761Y6847619D01*
X2990476Y7038095D01*
X3180952Y7228571D01*
X3276190Y7419047D01*
X4704761Y5323809D02*
X4704761Y4942857D01*
X4609523Y4752380D01*
X4514285Y4657142D01*
X4228571Y4466666D01*
X3847619Y4371428D01*
X3085714Y4371428D01*
X2895238Y4466666D01*
X2800000Y4561904D01*
X2704761Y4752380D01*
X2704761Y5133333D01*
X2800000Y5323809D01*
X2895238Y5419047D01*
X3085714Y5514285D01*
X3561904Y5514285D01*
X3752380Y5419047D01*
X3847619Y5323809D01*
X3942857Y5133333D01*
X3942857Y4752380D01*
X3847619Y4561904D01*
X3752380Y4466666D01*
X3561904Y4371428D01*
D11*
X-2371428Y10092857D02*
X-1228571Y10092857D01*
X-2371428Y13192857D02*
X-1228571Y13192857D01*
X-1800000Y12621428D02*
X-1800000Y13764285D01*
M02*
