G04 #@! TF.GenerationSoftware,KiCad,Pcbnew,(5.1.2)-2*
G04 #@! TF.CreationDate,2019-09-12T19:32:37+02:00*
G04 #@! TF.ProjectId,braunAdapterUSBC,62726175-6e41-4646-9170-746572555342,rev?*
G04 #@! TF.SameCoordinates,Original*
G04 #@! TF.FileFunction,Other,Fab,Top*
%FSLAX46Y46*%
G04 Gerber Fmt 4.6, Leading zero omitted, Abs format (unit mm)*
G04 Created by KiCad (PCBNEW (5.1.2)-2) date 2019-09-12 19:32:37*
%MOMM*%
%LPD*%
G04 APERTURE LIST*
%ADD10C,0.150000*%
%ADD11C,0.100000*%
%ADD12C,0.080000*%
%ADD13C,0.040000*%
%ADD14C,0.075000*%
G04 APERTURE END LIST*
D10*
X0Y-6250000D02*
X0Y-3750000D01*
X9250000Y6250000D02*
X5250000Y6250000D01*
X9500000Y6000000D02*
X9250000Y6250000D01*
X9500000Y5750000D02*
X9500000Y6000000D01*
X250000Y5750000D02*
X250000Y6000000D01*
X1250000Y4750000D02*
X250000Y5750000D01*
X5000000Y4750000D02*
X1250000Y4750000D01*
X6250000Y6000000D02*
X5000000Y4750000D01*
X7500000Y6000000D02*
X6250000Y6000000D01*
X7500000Y5750000D02*
X7500000Y6000000D01*
X4250000Y8000000D02*
X4000000Y7750000D01*
X5500000Y8000000D02*
X4250000Y8000000D01*
X6250000Y7500000D02*
X5500000Y8000000D01*
X6500000Y7500000D02*
X6250000Y7500000D01*
X6500000Y9000000D02*
X5250000Y9000000D01*
X-500000Y13750000D02*
X-2000000Y12250000D01*
X5000000Y13750000D02*
X-500000Y13750000D01*
X5500000Y13250000D02*
X5000000Y13750000D01*
X5500000Y12750000D02*
X5500000Y13250000D01*
X5500000Y11250000D02*
X5500000Y12750000D01*
X6250000Y10500000D02*
X5500000Y11250000D01*
X6500000Y10500000D02*
X6250000Y10500000D01*
X-1750000Y6000000D02*
X-1750000Y6500000D01*
X-3250000Y4500000D02*
X-1750000Y6000000D01*
X-6250000Y4500000D02*
X-3250000Y4500000D01*
X-6250000Y6250000D02*
X-5000000Y6250000D01*
X-6250000Y8000000D02*
X-5000000Y8000000D01*
D11*
X50000Y10700000D02*
X50000Y12350000D01*
X50000Y12350000D02*
X850000Y13150000D01*
X850000Y13150000D02*
X2500000Y13150000D01*
X4950000Y10700000D02*
X4950000Y12350000D01*
X4950000Y12350000D02*
X4150000Y13150000D01*
X4150000Y13150000D02*
X2500000Y13150000D01*
X4950000Y10700000D02*
X4950000Y9050000D01*
X4950000Y9050000D02*
X4150000Y8250000D01*
X4150000Y8250000D02*
X2500000Y8250000D01*
X50000Y10700000D02*
X50000Y9050000D01*
X50000Y9050000D02*
X850000Y8250000D01*
X850000Y8250000D02*
X2500000Y8250000D01*
X4600000Y-5230000D02*
X4600000Y5220000D01*
X-4600000Y-5230000D02*
X4600000Y-5230000D01*
X-4600000Y5220000D02*
X4600000Y5220000D01*
X-4600000Y-5230000D02*
X-4600000Y5220000D01*
X3600000Y6300000D02*
X1600000Y6300000D01*
X3600000Y7500000D02*
X3600000Y6300000D01*
X1600000Y7500000D02*
X3600000Y7500000D01*
X1600000Y6300000D02*
X1600000Y7500000D01*
X-2300000Y11900000D02*
X-1100000Y11900000D01*
X-1100000Y11900000D02*
X-1100000Y9900000D01*
X-1100000Y9900000D02*
X-2300000Y9900000D01*
X-2300000Y9900000D02*
X-2300000Y11900000D01*
X5150000Y6400000D02*
X4650000Y6400000D01*
X4650000Y6400000D02*
X4650000Y7400000D01*
X4650000Y7400000D02*
X5150000Y7400000D01*
X5150000Y7400000D02*
X5150000Y6400000D01*
X550000Y7400000D02*
X550000Y6400000D01*
X50000Y7400000D02*
X550000Y7400000D01*
X50000Y6400000D02*
X50000Y7400000D01*
X550000Y6400000D02*
X50000Y6400000D01*
X-4700000Y8450000D02*
X-3700000Y8450000D01*
X-4700000Y7950000D02*
X-4700000Y8450000D01*
X-3700000Y7950000D02*
X-4700000Y7950000D01*
X-3700000Y8450000D02*
X-3700000Y7950000D01*
X-3700000Y6150000D02*
X-4700000Y6150000D01*
X-3700000Y6650000D02*
X-3700000Y6150000D01*
X-4700000Y6650000D02*
X-3700000Y6650000D01*
X-4700000Y6150000D02*
X-4700000Y6650000D01*
X-2800000Y8265001D02*
X-2189919Y8875082D01*
X-2190000Y8875001D02*
X-800000Y8875001D01*
X-800000Y6875001D02*
X-800000Y8875001D01*
X-800000Y6875001D02*
X-2800000Y6875001D01*
X-2800000Y8255001D02*
X-2800000Y6875001D01*
D10*
X7333333Y8547619D02*
X6761904Y8547619D01*
X7047619Y8547619D02*
X7047619Y9547619D01*
X6952380Y9404761D01*
X6857142Y9309523D01*
X6761904Y9261904D01*
X7952380Y9547619D02*
X8047619Y9547619D01*
X8142857Y9500000D01*
X8190476Y9452380D01*
X8238095Y9357142D01*
X8285714Y9166666D01*
X8285714Y8928571D01*
X8238095Y8738095D01*
X8190476Y8642857D01*
X8142857Y8595238D01*
X8047619Y8547619D01*
X7952380Y8547619D01*
X7857142Y8595238D01*
X7809523Y8642857D01*
X7761904Y8738095D01*
X7714285Y8928571D01*
X7714285Y9166666D01*
X7761904Y9357142D01*
X7809523Y9452380D01*
X7857142Y9500000D01*
X7952380Y9547619D01*
X9142857Y9214285D02*
X9142857Y8547619D01*
X8714285Y9214285D02*
X8714285Y8690476D01*
X8761904Y8595238D01*
X8857142Y8547619D01*
X9000000Y8547619D01*
X9095238Y8595238D01*
X9142857Y8642857D01*
X9619047Y8547619D02*
X9619047Y9547619D01*
X9619047Y9071428D02*
X10190476Y9071428D01*
X10190476Y8547619D02*
X10190476Y9547619D01*
X2333333Y10247619D02*
X1857142Y10247619D01*
X1857142Y11247619D01*
X3190476Y10247619D02*
X2619047Y10247619D01*
X2904761Y10247619D02*
X2904761Y11247619D01*
X2809523Y11104761D01*
X2714285Y11009523D01*
X2619047Y10961904D01*
X-5380952Y-7452380D02*
X-5952380Y-7452380D01*
X-5666666Y-7452380D02*
X-5666666Y-6452380D01*
X-5761904Y-6595238D01*
X-5857142Y-6690476D01*
X-5952380Y-6738095D01*
X-5000000Y-6547619D02*
X-4952380Y-6500000D01*
X-4857142Y-6452380D01*
X-4619047Y-6452380D01*
X-4523809Y-6500000D01*
X-4476190Y-6547619D01*
X-4428571Y-6642857D01*
X-4428571Y-6738095D01*
X-4476190Y-6880952D01*
X-5047619Y-7452380D01*
X-4428571Y-7452380D01*
X-3571428Y-6785714D02*
X-3571428Y-7452380D01*
X-3809523Y-6404761D02*
X-4047619Y-7119047D01*
X-3428571Y-7119047D01*
X-2857142Y-6452380D02*
X-2761904Y-6452380D01*
X-2666666Y-6500000D01*
X-2619047Y-6547619D01*
X-2571428Y-6642857D01*
X-2523809Y-6833333D01*
X-2523809Y-7071428D01*
X-2571428Y-7261904D01*
X-2619047Y-7357142D01*
X-2666666Y-7404761D01*
X-2761904Y-7452380D01*
X-2857142Y-7452380D01*
X-2952380Y-7404761D01*
X-3000000Y-7357142D01*
X-3047619Y-7261904D01*
X-3095238Y-7071428D01*
X-3095238Y-6833333D01*
X-3047619Y-6642857D01*
X-3000000Y-6547619D01*
X-2952380Y-6500000D01*
X-2857142Y-6452380D01*
X-1571428Y-7452380D02*
X-2142857Y-7452380D01*
X-1857142Y-7452380D02*
X-1857142Y-6452380D01*
X-1952380Y-6595238D01*
X-2047619Y-6690476D01*
X-2142857Y-6738095D01*
X-714285Y-6452380D02*
X-904761Y-6452380D01*
X-1000000Y-6500000D01*
X-1047619Y-6547619D01*
X-1142857Y-6690476D01*
X-1190476Y-6880952D01*
X-1190476Y-7261904D01*
X-1142857Y-7357142D01*
X-1095238Y-7404761D01*
X-1000000Y-7452380D01*
X-809523Y-7452380D01*
X-714285Y-7404761D01*
X-666666Y-7357142D01*
X-619047Y-7261904D01*
X-619047Y-7023809D01*
X-666666Y-6928571D01*
X-714285Y-6880952D01*
X-809523Y-6833333D01*
X-1000000Y-6833333D01*
X-1095238Y-6880952D01*
X-1142857Y-6928571D01*
X-1190476Y-7023809D01*
X333333Y-7452380D02*
X-238095Y-7452380D01*
X47619Y-7452380D02*
X47619Y-6452380D01*
X-47619Y-6595238D01*
X-142857Y-6690476D01*
X-238095Y-6738095D01*
X952380Y-6452380D02*
X1047619Y-6452380D01*
X1142857Y-6500000D01*
X1190476Y-6547619D01*
X1238095Y-6642857D01*
X1285714Y-6833333D01*
X1285714Y-7071428D01*
X1238095Y-7261904D01*
X1190476Y-7357142D01*
X1142857Y-7404761D01*
X1047619Y-7452380D01*
X952380Y-7452380D01*
X857142Y-7404761D01*
X809523Y-7357142D01*
X761904Y-7261904D01*
X714285Y-7071428D01*
X714285Y-6833333D01*
X761904Y-6642857D01*
X809523Y-6547619D01*
X857142Y-6500000D01*
X952380Y-6452380D01*
X1714285Y-6928571D02*
X2047619Y-6928571D01*
X2190476Y-7452380D02*
X1714285Y-7452380D01*
X1714285Y-6452380D01*
X2190476Y-6452380D01*
X3047619Y-6785714D02*
X3047619Y-7452380D01*
X2809523Y-6404761D02*
X2571428Y-7119047D01*
X3190476Y-7119047D01*
X3523809Y-6785714D02*
X4238095Y-6785714D01*
X3809523Y-6357142D02*
X3523809Y-7642857D01*
X4142857Y-7214285D02*
X3428571Y-7214285D01*
X3857142Y-7642857D02*
X4142857Y-6357142D01*
X4523809Y-6547619D02*
X4571428Y-6500000D01*
X4666666Y-6452380D01*
X4904761Y-6452380D01*
X4999999Y-6500000D01*
X5047619Y-6547619D01*
X5095238Y-6642857D01*
X5095238Y-6738095D01*
X5047619Y-6880952D01*
X4476190Y-7452380D01*
X5095238Y-7452380D01*
X5476190Y-7166666D02*
X5952380Y-7166666D01*
X5380952Y-7452380D02*
X5714285Y-6452380D01*
X6047619Y-7452380D01*
X7357142Y7047619D02*
X6785714Y7047619D01*
X7071428Y7047619D02*
X7071428Y8047619D01*
X6976190Y7904761D01*
X6880952Y7809523D01*
X6785714Y7761904D01*
X7976190Y8047619D02*
X8071428Y8047619D01*
X8166666Y8000000D01*
X8214285Y7952380D01*
X8261904Y7857142D01*
X8309523Y7666666D01*
X8309523Y7428571D01*
X8261904Y7238095D01*
X8214285Y7142857D01*
X8166666Y7095238D01*
X8071428Y7047619D01*
X7976190Y7047619D01*
X7880952Y7095238D01*
X7833333Y7142857D01*
X7785714Y7238095D01*
X7738095Y7428571D01*
X7738095Y7666666D01*
X7785714Y7857142D01*
X7833333Y7952380D01*
X7880952Y8000000D01*
X7976190Y8047619D01*
X9166666Y7714285D02*
X9166666Y7047619D01*
X8738095Y7714285D02*
X8738095Y7190476D01*
X8785714Y7095238D01*
X8880952Y7047619D01*
X9023809Y7047619D01*
X9119047Y7095238D01*
X9166666Y7142857D01*
D12*
X2516666Y6721428D02*
X2492857Y6697619D01*
X2421428Y6673809D01*
X2373809Y6673809D01*
X2302380Y6697619D01*
X2254761Y6745238D01*
X2230952Y6792857D01*
X2207142Y6888095D01*
X2207142Y6959523D01*
X2230952Y7054761D01*
X2254761Y7102380D01*
X2302380Y7150000D01*
X2373809Y7173809D01*
X2421428Y7173809D01*
X2492857Y7150000D01*
X2516666Y7126190D01*
X2992857Y6673809D02*
X2707142Y6673809D01*
X2850000Y6673809D02*
X2850000Y7173809D01*
X2802380Y7102380D01*
X2754761Y7054761D01*
X2707142Y7030952D01*
D10*
X7357142Y10047619D02*
X6785714Y10047619D01*
X7071428Y10047619D02*
X7071428Y11047619D01*
X6976190Y10904761D01*
X6880952Y10809523D01*
X6785714Y10761904D01*
X7976190Y11047619D02*
X8071428Y11047619D01*
X8166666Y11000000D01*
X8214285Y10952380D01*
X8261904Y10857142D01*
X8309523Y10666666D01*
X8309523Y10428571D01*
X8261904Y10238095D01*
X8214285Y10142857D01*
X8166666Y10095238D01*
X8071428Y10047619D01*
X7976190Y10047619D01*
X7880952Y10095238D01*
X7833333Y10142857D01*
X7785714Y10238095D01*
X7738095Y10428571D01*
X7738095Y10666666D01*
X7785714Y10857142D01*
X7833333Y10952380D01*
X7880952Y11000000D01*
X7976190Y11047619D01*
X9166666Y10714285D02*
X9166666Y10047619D01*
X8738095Y10714285D02*
X8738095Y10190476D01*
X8785714Y10095238D01*
X8880952Y10047619D01*
X9023809Y10047619D01*
X9119047Y10095238D01*
X9166666Y10142857D01*
D12*
X-1521428Y10816666D02*
X-1497619Y10792857D01*
X-1473809Y10721428D01*
X-1473809Y10673809D01*
X-1497619Y10602380D01*
X-1545238Y10554761D01*
X-1592857Y10530952D01*
X-1688095Y10507142D01*
X-1759523Y10507142D01*
X-1854761Y10530952D01*
X-1902380Y10554761D01*
X-1950000Y10602380D01*
X-1973809Y10673809D01*
X-1973809Y10721428D01*
X-1950000Y10792857D01*
X-1926190Y10816666D01*
X-1926190Y11007142D02*
X-1950000Y11030952D01*
X-1973809Y11078571D01*
X-1973809Y11197619D01*
X-1950000Y11245238D01*
X-1926190Y11269047D01*
X-1878571Y11292857D01*
X-1830952Y11292857D01*
X-1759523Y11269047D01*
X-1473809Y10983333D01*
X-1473809Y11292857D01*
D10*
X8952380Y3761904D02*
X8952380Y3285714D01*
X9428571Y3238095D01*
X9380952Y3285714D01*
X9333333Y3380952D01*
X9333333Y3619047D01*
X9380952Y3714285D01*
X9428571Y3761904D01*
X9523809Y3809523D01*
X9761904Y3809523D01*
X9857142Y3761904D01*
X9904761Y3714285D01*
X9952380Y3619047D01*
X9952380Y3380952D01*
X9904761Y3285714D01*
X9857142Y3238095D01*
X9952380Y4238095D02*
X8952380Y4238095D01*
X9952380Y4809523D02*
X9380952Y4380952D01*
X8952380Y4809523D02*
X9523809Y4238095D01*
X9952380Y5761904D02*
X9952380Y5190476D01*
X9952380Y5476190D02*
X8952380Y5476190D01*
X9095238Y5380952D01*
X9190476Y5285714D01*
X9238095Y5190476D01*
D13*
X5013095Y6858333D02*
X4894047Y6775000D01*
X5013095Y6715476D02*
X4763095Y6715476D01*
X4763095Y6810714D01*
X4775000Y6834523D01*
X4786904Y6846428D01*
X4810714Y6858333D01*
X4846428Y6858333D01*
X4870238Y6846428D01*
X4882142Y6834523D01*
X4894047Y6810714D01*
X4894047Y6715476D01*
X5013095Y7096428D02*
X5013095Y6953571D01*
X5013095Y7025000D02*
X4763095Y7025000D01*
X4798809Y7001190D01*
X4822619Y6977380D01*
X4834523Y6953571D01*
D10*
X6952380Y3761904D02*
X6952380Y3285714D01*
X7428571Y3238095D01*
X7380952Y3285714D01*
X7333333Y3380952D01*
X7333333Y3619047D01*
X7380952Y3714285D01*
X7428571Y3761904D01*
X7523809Y3809523D01*
X7761904Y3809523D01*
X7857142Y3761904D01*
X7904761Y3714285D01*
X7952380Y3619047D01*
X7952380Y3380952D01*
X7904761Y3285714D01*
X7857142Y3238095D01*
X7952380Y4238095D02*
X6952380Y4238095D01*
X7952380Y4809523D02*
X7380952Y4380952D01*
X6952380Y4809523D02*
X7523809Y4238095D01*
X7952380Y5761904D02*
X7952380Y5190476D01*
X7952380Y5476190D02*
X6952380Y5476190D01*
X7095238Y5380952D01*
X7190476Y5285714D01*
X7238095Y5190476D01*
D13*
X413095Y6858333D02*
X294047Y6775000D01*
X413095Y6715476D02*
X163095Y6715476D01*
X163095Y6810714D01*
X175000Y6834523D01*
X186904Y6846428D01*
X210714Y6858333D01*
X246428Y6858333D01*
X270238Y6846428D01*
X282142Y6834523D01*
X294047Y6810714D01*
X294047Y6715476D01*
X186904Y6953571D02*
X175000Y6965476D01*
X163095Y6989285D01*
X163095Y7048809D01*
X175000Y7072619D01*
X186904Y7084523D01*
X210714Y7096428D01*
X234523Y7096428D01*
X270238Y7084523D01*
X413095Y6941666D01*
X413095Y7096428D01*
D10*
X-9661904Y8314285D02*
X-9661904Y7647619D01*
X-9900000Y8695238D02*
X-10138095Y7980952D01*
X-9519047Y7980952D01*
X-9233333Y8647619D02*
X-8614285Y8647619D01*
X-8947619Y8266666D01*
X-8804761Y8266666D01*
X-8709523Y8219047D01*
X-8661904Y8171428D01*
X-8614285Y8076190D01*
X-8614285Y7838095D01*
X-8661904Y7742857D01*
X-8709523Y7695238D01*
X-8804761Y7647619D01*
X-9090476Y7647619D01*
X-9185714Y7695238D01*
X-9233333Y7742857D01*
X-8185714Y7647619D02*
X-8185714Y8647619D01*
X-7614285Y7647619D02*
X-8042857Y8219047D01*
X-7614285Y8647619D02*
X-8185714Y8076190D01*
X-7233333Y8552380D02*
X-7185714Y8600000D01*
X-7090476Y8647619D01*
X-6852380Y8647619D01*
X-6757142Y8600000D01*
X-6709523Y8552380D01*
X-6661904Y8457142D01*
X-6661904Y8361904D01*
X-6709523Y8219047D01*
X-7280952Y7647619D01*
X-6661904Y7647619D01*
D13*
X-4241666Y8086904D02*
X-4325000Y8205952D01*
X-4384523Y8086904D02*
X-4384523Y8336904D01*
X-4289285Y8336904D01*
X-4265476Y8325000D01*
X-4253571Y8313095D01*
X-4241666Y8289285D01*
X-4241666Y8253571D01*
X-4253571Y8229761D01*
X-4265476Y8217857D01*
X-4289285Y8205952D01*
X-4384523Y8205952D01*
X-4158333Y8336904D02*
X-4003571Y8336904D01*
X-4086904Y8241666D01*
X-4051190Y8241666D01*
X-4027380Y8229761D01*
X-4015476Y8217857D01*
X-4003571Y8194047D01*
X-4003571Y8134523D01*
X-4015476Y8110714D01*
X-4027380Y8098809D01*
X-4051190Y8086904D01*
X-4122619Y8086904D01*
X-4146428Y8098809D01*
X-4158333Y8110714D01*
D10*
X-9561904Y6614285D02*
X-9561904Y5947619D01*
X-9800000Y6995238D02*
X-10038095Y6280952D01*
X-9419047Y6280952D01*
X-9038095Y5947619D02*
X-9038095Y6947619D01*
X-8466666Y5947619D02*
X-8895238Y6519047D01*
X-8466666Y6947619D02*
X-9038095Y6376190D01*
X-7990476Y5947619D02*
X-7800000Y5947619D01*
X-7704761Y5995238D01*
X-7657142Y6042857D01*
X-7561904Y6185714D01*
X-7514285Y6376190D01*
X-7514285Y6757142D01*
X-7561904Y6852380D01*
X-7609523Y6900000D01*
X-7704761Y6947619D01*
X-7895238Y6947619D01*
X-7990476Y6900000D01*
X-8038095Y6852380D01*
X-8085714Y6757142D01*
X-8085714Y6519047D01*
X-8038095Y6423809D01*
X-7990476Y6376190D01*
X-7895238Y6328571D01*
X-7704761Y6328571D01*
X-7609523Y6376190D01*
X-7561904Y6423809D01*
X-7514285Y6519047D01*
X-7038095Y5947619D02*
X-6847619Y5947619D01*
X-6752380Y5995238D01*
X-6704761Y6042857D01*
X-6609523Y6185714D01*
X-6561904Y6376190D01*
X-6561904Y6757142D01*
X-6609523Y6852380D01*
X-6657142Y6900000D01*
X-6752380Y6947619D01*
X-6942857Y6947619D01*
X-7038095Y6900000D01*
X-7085714Y6852380D01*
X-7133333Y6757142D01*
X-7133333Y6519047D01*
X-7085714Y6423809D01*
X-7038095Y6376190D01*
X-6942857Y6328571D01*
X-6752380Y6328571D01*
X-6657142Y6376190D01*
X-6609523Y6423809D01*
X-6561904Y6519047D01*
D13*
X-4241666Y6286904D02*
X-4325000Y6405952D01*
X-4384523Y6286904D02*
X-4384523Y6536904D01*
X-4289285Y6536904D01*
X-4265476Y6525000D01*
X-4253571Y6513095D01*
X-4241666Y6489285D01*
X-4241666Y6453571D01*
X-4253571Y6429761D01*
X-4265476Y6417857D01*
X-4289285Y6405952D01*
X-4384523Y6405952D01*
X-4027380Y6453571D02*
X-4027380Y6286904D01*
X-4086904Y6548809D02*
X-4146428Y6370238D01*
X-3991666Y6370238D01*
D10*
X-8619047Y12547619D02*
X-9190476Y12547619D01*
X-8904761Y12547619D02*
X-8904761Y13547619D01*
X-9000000Y13404761D01*
X-9095238Y13309523D01*
X-9190476Y13261904D01*
X-8238095Y13452380D02*
X-8190476Y13500000D01*
X-8095238Y13547619D01*
X-7857142Y13547619D01*
X-7761904Y13500000D01*
X-7714285Y13452380D01*
X-7666666Y13357142D01*
X-7666666Y13261904D01*
X-7714285Y13119047D01*
X-8285714Y12547619D01*
X-7666666Y12547619D01*
X-7380952Y13547619D02*
X-7047619Y12547619D01*
X-6714285Y13547619D01*
X-8761904Y10500000D02*
X-8857142Y10547619D01*
X-9000000Y10547619D01*
X-9142857Y10500000D01*
X-9238095Y10404761D01*
X-9285714Y10309523D01*
X-9333333Y10119047D01*
X-9333333Y9976190D01*
X-9285714Y9785714D01*
X-9238095Y9690476D01*
X-9142857Y9595238D01*
X-9000000Y9547619D01*
X-8904761Y9547619D01*
X-8761904Y9595238D01*
X-8714285Y9642857D01*
X-8714285Y9976190D01*
X-8904761Y9976190D01*
X-8285714Y9547619D02*
X-8285714Y10547619D01*
X-7714285Y9547619D01*
X-7714285Y10547619D01*
X-7238095Y9547619D02*
X-7238095Y10547619D01*
X-7000000Y10547619D01*
X-6857142Y10500000D01*
X-6761904Y10404761D01*
X-6714285Y10309523D01*
X-6666666Y10119047D01*
X-6666666Y9976190D01*
X-6714285Y9785714D01*
X-6761904Y9690476D01*
X-6857142Y9595238D01*
X-7000000Y9547619D01*
X-7238095Y9547619D01*
X-12476190Y4047619D02*
X-12476190Y5047619D01*
X-12142857Y4333333D01*
X-11809523Y5047619D01*
X-11809523Y4047619D01*
X-11333333Y4047619D02*
X-11333333Y5047619D01*
X-10285714Y4142857D02*
X-10333333Y4095238D01*
X-10476190Y4047619D01*
X-10571428Y4047619D01*
X-10714285Y4095238D01*
X-10809523Y4190476D01*
X-10857142Y4285714D01*
X-10904761Y4476190D01*
X-10904761Y4619047D01*
X-10857142Y4809523D01*
X-10809523Y4904761D01*
X-10714285Y5000000D01*
X-10571428Y5047619D01*
X-10476190Y5047619D01*
X-10333333Y5000000D01*
X-10285714Y4952380D01*
X-9904761Y4952380D02*
X-9857142Y5000000D01*
X-9761904Y5047619D01*
X-9523809Y5047619D01*
X-9428571Y5000000D01*
X-9380952Y4952380D01*
X-9333333Y4857142D01*
X-9333333Y4761904D01*
X-9380952Y4619047D01*
X-9952380Y4047619D01*
X-9333333Y4047619D01*
X-8952380Y4952380D02*
X-8904761Y5000000D01*
X-8809523Y5047619D01*
X-8571428Y5047619D01*
X-8476190Y5000000D01*
X-8428571Y4952380D01*
X-8380952Y4857142D01*
X-8380952Y4761904D01*
X-8428571Y4619047D01*
X-9000000Y4047619D01*
X-8380952Y4047619D01*
X-7904761Y4047619D02*
X-7714285Y4047619D01*
X-7619047Y4095238D01*
X-7571428Y4142857D01*
X-7476190Y4285714D01*
X-7428571Y4476190D01*
X-7428571Y4857142D01*
X-7476190Y4952380D01*
X-7523809Y5000000D01*
X-7619047Y5047619D01*
X-7809523Y5047619D01*
X-7904761Y5000000D01*
X-7952380Y4952380D01*
X-8000000Y4857142D01*
X-8000000Y4619047D01*
X-7952380Y4523809D01*
X-7904761Y4476190D01*
X-7809523Y4428571D01*
X-7619047Y4428571D01*
X-7523809Y4476190D01*
X-7476190Y4523809D01*
X-7428571Y4619047D01*
X-6809523Y5047619D02*
X-6714285Y5047619D01*
X-6619047Y5000000D01*
X-6571428Y4952380D01*
X-6523809Y4857142D01*
X-6476190Y4666666D01*
X-6476190Y4428571D01*
X-6523809Y4238095D01*
X-6571428Y4142857D01*
X-6619047Y4095238D01*
X-6714285Y4047619D01*
X-6809523Y4047619D01*
X-6904761Y4095238D01*
X-6952380Y4142857D01*
X-7000000Y4238095D01*
X-7047619Y4428571D01*
X-7047619Y4666666D01*
X-7000000Y4857142D01*
X-6952380Y4952380D01*
X-6904761Y5000000D01*
X-6809523Y5047619D01*
D14*
X-2180952Y8148810D02*
X-2180952Y7744048D01*
X-2157142Y7696429D01*
X-2133333Y7672620D01*
X-2085714Y7648810D01*
X-1990476Y7648810D01*
X-1942857Y7672620D01*
X-1919047Y7696429D01*
X-1895238Y7744048D01*
X-1895238Y8148810D01*
X-1395238Y7648810D02*
X-1680952Y7648810D01*
X-1538095Y7648810D02*
X-1538095Y8148810D01*
X-1585714Y8077381D01*
X-1633333Y8029762D01*
X-1680952Y8005953D01*
M02*
