G04 #@! TF.GenerationSoftware,KiCad,Pcbnew,(5.1.2)-2*
G04 #@! TF.CreationDate,2019-09-12T19:32:37+02:00*
G04 #@! TF.ProjectId,braunAdapterUSBC,62726175-6e41-4646-9170-746572555342,rev?*
G04 #@! TF.SameCoordinates,Original*
G04 #@! TF.FileFunction,Paste,Top*
G04 #@! TF.FilePolarity,Positive*
%FSLAX46Y46*%
G04 Gerber Fmt 4.6, Leading zero omitted, Abs format (unit mm)*
G04 Created by KiCad (PCBNEW (5.1.2)-2) date 2019-09-12 19:32:37*
%MOMM*%
%LPD*%
G04 APERTURE LIST*
%ADD10R,1.500000X4.200000*%
%ADD11R,0.300000X0.700000*%
%ADD12C,0.100000*%
%ADD13C,0.975000*%
%ADD14C,0.590000*%
%ADD15R,0.400000X0.230000*%
%ADD16R,0.550000X0.550000*%
G04 APERTURE END LIST*
D10*
X700000Y10700000D03*
X4300000Y10700000D03*
D11*
X-2750000Y5020000D03*
X-2250000Y5020000D03*
X-1750000Y5020000D03*
X-1250000Y5020000D03*
X-750000Y5020000D03*
X-250000Y5020000D03*
X250000Y5020000D03*
X2750000Y5020000D03*
X1750000Y5020000D03*
X1250000Y5020000D03*
X750000Y5020000D03*
X2250000Y5020000D03*
X2500000Y3320000D03*
X2000000Y3320000D03*
X1500000Y3320000D03*
X1000000Y3320000D03*
X500000Y3320000D03*
X0Y3320000D03*
X-500000Y3320000D03*
X-1000000Y3320000D03*
X-1500000Y3320000D03*
X-2000000Y3320000D03*
X-2500000Y3320000D03*
X-3000000Y3320000D03*
D12*
G36*
X3805142Y7598826D02*
G01*
X3828803Y7595316D01*
X3852007Y7589504D01*
X3874529Y7581446D01*
X3896153Y7571218D01*
X3916670Y7558921D01*
X3935883Y7544671D01*
X3953607Y7528607D01*
X3969671Y7510883D01*
X3983921Y7491670D01*
X3996218Y7471153D01*
X4006446Y7449529D01*
X4014504Y7427007D01*
X4020316Y7403803D01*
X4023826Y7380142D01*
X4025000Y7356250D01*
X4025000Y6443750D01*
X4023826Y6419858D01*
X4020316Y6396197D01*
X4014504Y6372993D01*
X4006446Y6350471D01*
X3996218Y6328847D01*
X3983921Y6308330D01*
X3969671Y6289117D01*
X3953607Y6271393D01*
X3935883Y6255329D01*
X3916670Y6241079D01*
X3896153Y6228782D01*
X3874529Y6218554D01*
X3852007Y6210496D01*
X3828803Y6204684D01*
X3805142Y6201174D01*
X3781250Y6200000D01*
X3293750Y6200000D01*
X3269858Y6201174D01*
X3246197Y6204684D01*
X3222993Y6210496D01*
X3200471Y6218554D01*
X3178847Y6228782D01*
X3158330Y6241079D01*
X3139117Y6255329D01*
X3121393Y6271393D01*
X3105329Y6289117D01*
X3091079Y6308330D01*
X3078782Y6328847D01*
X3068554Y6350471D01*
X3060496Y6372993D01*
X3054684Y6396197D01*
X3051174Y6419858D01*
X3050000Y6443750D01*
X3050000Y7356250D01*
X3051174Y7380142D01*
X3054684Y7403803D01*
X3060496Y7427007D01*
X3068554Y7449529D01*
X3078782Y7471153D01*
X3091079Y7491670D01*
X3105329Y7510883D01*
X3121393Y7528607D01*
X3139117Y7544671D01*
X3158330Y7558921D01*
X3178847Y7571218D01*
X3200471Y7581446D01*
X3222993Y7589504D01*
X3246197Y7595316D01*
X3269858Y7598826D01*
X3293750Y7600000D01*
X3781250Y7600000D01*
X3805142Y7598826D01*
X3805142Y7598826D01*
G37*
D13*
X3537500Y6900000D03*
D12*
G36*
X1930142Y7598826D02*
G01*
X1953803Y7595316D01*
X1977007Y7589504D01*
X1999529Y7581446D01*
X2021153Y7571218D01*
X2041670Y7558921D01*
X2060883Y7544671D01*
X2078607Y7528607D01*
X2094671Y7510883D01*
X2108921Y7491670D01*
X2121218Y7471153D01*
X2131446Y7449529D01*
X2139504Y7427007D01*
X2145316Y7403803D01*
X2148826Y7380142D01*
X2150000Y7356250D01*
X2150000Y6443750D01*
X2148826Y6419858D01*
X2145316Y6396197D01*
X2139504Y6372993D01*
X2131446Y6350471D01*
X2121218Y6328847D01*
X2108921Y6308330D01*
X2094671Y6289117D01*
X2078607Y6271393D01*
X2060883Y6255329D01*
X2041670Y6241079D01*
X2021153Y6228782D01*
X1999529Y6218554D01*
X1977007Y6210496D01*
X1953803Y6204684D01*
X1930142Y6201174D01*
X1906250Y6200000D01*
X1418750Y6200000D01*
X1394858Y6201174D01*
X1371197Y6204684D01*
X1347993Y6210496D01*
X1325471Y6218554D01*
X1303847Y6228782D01*
X1283330Y6241079D01*
X1264117Y6255329D01*
X1246393Y6271393D01*
X1230329Y6289117D01*
X1216079Y6308330D01*
X1203782Y6328847D01*
X1193554Y6350471D01*
X1185496Y6372993D01*
X1179684Y6396197D01*
X1176174Y6419858D01*
X1175000Y6443750D01*
X1175000Y7356250D01*
X1176174Y7380142D01*
X1179684Y7403803D01*
X1185496Y7427007D01*
X1193554Y7449529D01*
X1203782Y7471153D01*
X1216079Y7491670D01*
X1230329Y7510883D01*
X1246393Y7528607D01*
X1264117Y7544671D01*
X1283330Y7558921D01*
X1303847Y7571218D01*
X1325471Y7581446D01*
X1347993Y7589504D01*
X1371197Y7595316D01*
X1394858Y7598826D01*
X1418750Y7600000D01*
X1906250Y7600000D01*
X1930142Y7598826D01*
X1930142Y7598826D01*
G37*
D13*
X1662500Y6900000D03*
D12*
G36*
X-1219858Y12323826D02*
G01*
X-1196197Y12320316D01*
X-1172993Y12314504D01*
X-1150471Y12306446D01*
X-1128847Y12296218D01*
X-1108330Y12283921D01*
X-1089117Y12269671D01*
X-1071393Y12253607D01*
X-1055329Y12235883D01*
X-1041079Y12216670D01*
X-1028782Y12196153D01*
X-1018554Y12174529D01*
X-1010496Y12152007D01*
X-1004684Y12128803D01*
X-1001174Y12105142D01*
X-1000000Y12081250D01*
X-1000000Y11593750D01*
X-1001174Y11569858D01*
X-1004684Y11546197D01*
X-1010496Y11522993D01*
X-1018554Y11500471D01*
X-1028782Y11478847D01*
X-1041079Y11458330D01*
X-1055329Y11439117D01*
X-1071393Y11421393D01*
X-1089117Y11405329D01*
X-1108330Y11391079D01*
X-1128847Y11378782D01*
X-1150471Y11368554D01*
X-1172993Y11360496D01*
X-1196197Y11354684D01*
X-1219858Y11351174D01*
X-1243750Y11350000D01*
X-2156250Y11350000D01*
X-2180142Y11351174D01*
X-2203803Y11354684D01*
X-2227007Y11360496D01*
X-2249529Y11368554D01*
X-2271153Y11378782D01*
X-2291670Y11391079D01*
X-2310883Y11405329D01*
X-2328607Y11421393D01*
X-2344671Y11439117D01*
X-2358921Y11458330D01*
X-2371218Y11478847D01*
X-2381446Y11500471D01*
X-2389504Y11522993D01*
X-2395316Y11546197D01*
X-2398826Y11569858D01*
X-2400000Y11593750D01*
X-2400000Y12081250D01*
X-2398826Y12105142D01*
X-2395316Y12128803D01*
X-2389504Y12152007D01*
X-2381446Y12174529D01*
X-2371218Y12196153D01*
X-2358921Y12216670D01*
X-2344671Y12235883D01*
X-2328607Y12253607D01*
X-2310883Y12269671D01*
X-2291670Y12283921D01*
X-2271153Y12296218D01*
X-2249529Y12306446D01*
X-2227007Y12314504D01*
X-2203803Y12320316D01*
X-2180142Y12323826D01*
X-2156250Y12325000D01*
X-1243750Y12325000D01*
X-1219858Y12323826D01*
X-1219858Y12323826D01*
G37*
D13*
X-1700000Y11837500D03*
D12*
G36*
X-1219858Y10448826D02*
G01*
X-1196197Y10445316D01*
X-1172993Y10439504D01*
X-1150471Y10431446D01*
X-1128847Y10421218D01*
X-1108330Y10408921D01*
X-1089117Y10394671D01*
X-1071393Y10378607D01*
X-1055329Y10360883D01*
X-1041079Y10341670D01*
X-1028782Y10321153D01*
X-1018554Y10299529D01*
X-1010496Y10277007D01*
X-1004684Y10253803D01*
X-1001174Y10230142D01*
X-1000000Y10206250D01*
X-1000000Y9718750D01*
X-1001174Y9694858D01*
X-1004684Y9671197D01*
X-1010496Y9647993D01*
X-1018554Y9625471D01*
X-1028782Y9603847D01*
X-1041079Y9583330D01*
X-1055329Y9564117D01*
X-1071393Y9546393D01*
X-1089117Y9530329D01*
X-1108330Y9516079D01*
X-1128847Y9503782D01*
X-1150471Y9493554D01*
X-1172993Y9485496D01*
X-1196197Y9479684D01*
X-1219858Y9476174D01*
X-1243750Y9475000D01*
X-2156250Y9475000D01*
X-2180142Y9476174D01*
X-2203803Y9479684D01*
X-2227007Y9485496D01*
X-2249529Y9493554D01*
X-2271153Y9503782D01*
X-2291670Y9516079D01*
X-2310883Y9530329D01*
X-2328607Y9546393D01*
X-2344671Y9564117D01*
X-2358921Y9583330D01*
X-2371218Y9603847D01*
X-2381446Y9625471D01*
X-2389504Y9647993D01*
X-2395316Y9671197D01*
X-2398826Y9694858D01*
X-2400000Y9718750D01*
X-2400000Y10206250D01*
X-2398826Y10230142D01*
X-2395316Y10253803D01*
X-2389504Y10277007D01*
X-2381446Y10299529D01*
X-2371218Y10321153D01*
X-2358921Y10341670D01*
X-2344671Y10360883D01*
X-2328607Y10378607D01*
X-2310883Y10394671D01*
X-2291670Y10408921D01*
X-2271153Y10421218D01*
X-2249529Y10431446D01*
X-2227007Y10439504D01*
X-2203803Y10445316D01*
X-2180142Y10448826D01*
X-2156250Y10450000D01*
X-1243750Y10450000D01*
X-1219858Y10448826D01*
X-1219858Y10448826D01*
G37*
D13*
X-1700000Y9962500D03*
D12*
G36*
X5086958Y6709290D02*
G01*
X5101276Y6707166D01*
X5115317Y6703649D01*
X5128946Y6698772D01*
X5142031Y6692583D01*
X5154447Y6685142D01*
X5166073Y6676519D01*
X5176798Y6666798D01*
X5186519Y6656073D01*
X5195142Y6644447D01*
X5202583Y6632031D01*
X5208772Y6618946D01*
X5213649Y6605317D01*
X5217166Y6591276D01*
X5219290Y6576958D01*
X5220000Y6562500D01*
X5220000Y6267500D01*
X5219290Y6253042D01*
X5217166Y6238724D01*
X5213649Y6224683D01*
X5208772Y6211054D01*
X5202583Y6197969D01*
X5195142Y6185553D01*
X5186519Y6173927D01*
X5176798Y6163202D01*
X5166073Y6153481D01*
X5154447Y6144858D01*
X5142031Y6137417D01*
X5128946Y6131228D01*
X5115317Y6126351D01*
X5101276Y6122834D01*
X5086958Y6120710D01*
X5072500Y6120000D01*
X4727500Y6120000D01*
X4713042Y6120710D01*
X4698724Y6122834D01*
X4684683Y6126351D01*
X4671054Y6131228D01*
X4657969Y6137417D01*
X4645553Y6144858D01*
X4633927Y6153481D01*
X4623202Y6163202D01*
X4613481Y6173927D01*
X4604858Y6185553D01*
X4597417Y6197969D01*
X4591228Y6211054D01*
X4586351Y6224683D01*
X4582834Y6238724D01*
X4580710Y6253042D01*
X4580000Y6267500D01*
X4580000Y6562500D01*
X4580710Y6576958D01*
X4582834Y6591276D01*
X4586351Y6605317D01*
X4591228Y6618946D01*
X4597417Y6632031D01*
X4604858Y6644447D01*
X4613481Y6656073D01*
X4623202Y6666798D01*
X4633927Y6676519D01*
X4645553Y6685142D01*
X4657969Y6692583D01*
X4671054Y6698772D01*
X4684683Y6703649D01*
X4698724Y6707166D01*
X4713042Y6709290D01*
X4727500Y6710000D01*
X5072500Y6710000D01*
X5086958Y6709290D01*
X5086958Y6709290D01*
G37*
D14*
X4900000Y6415000D03*
D12*
G36*
X5086958Y7679290D02*
G01*
X5101276Y7677166D01*
X5115317Y7673649D01*
X5128946Y7668772D01*
X5142031Y7662583D01*
X5154447Y7655142D01*
X5166073Y7646519D01*
X5176798Y7636798D01*
X5186519Y7626073D01*
X5195142Y7614447D01*
X5202583Y7602031D01*
X5208772Y7588946D01*
X5213649Y7575317D01*
X5217166Y7561276D01*
X5219290Y7546958D01*
X5220000Y7532500D01*
X5220000Y7237500D01*
X5219290Y7223042D01*
X5217166Y7208724D01*
X5213649Y7194683D01*
X5208772Y7181054D01*
X5202583Y7167969D01*
X5195142Y7155553D01*
X5186519Y7143927D01*
X5176798Y7133202D01*
X5166073Y7123481D01*
X5154447Y7114858D01*
X5142031Y7107417D01*
X5128946Y7101228D01*
X5115317Y7096351D01*
X5101276Y7092834D01*
X5086958Y7090710D01*
X5072500Y7090000D01*
X4727500Y7090000D01*
X4713042Y7090710D01*
X4698724Y7092834D01*
X4684683Y7096351D01*
X4671054Y7101228D01*
X4657969Y7107417D01*
X4645553Y7114858D01*
X4633927Y7123481D01*
X4623202Y7133202D01*
X4613481Y7143927D01*
X4604858Y7155553D01*
X4597417Y7167969D01*
X4591228Y7181054D01*
X4586351Y7194683D01*
X4582834Y7208724D01*
X4580710Y7223042D01*
X4580000Y7237500D01*
X4580000Y7532500D01*
X4580710Y7546958D01*
X4582834Y7561276D01*
X4586351Y7575317D01*
X4591228Y7588946D01*
X4597417Y7602031D01*
X4604858Y7614447D01*
X4613481Y7626073D01*
X4623202Y7636798D01*
X4633927Y7646519D01*
X4645553Y7655142D01*
X4657969Y7662583D01*
X4671054Y7668772D01*
X4684683Y7673649D01*
X4698724Y7677166D01*
X4713042Y7679290D01*
X4727500Y7680000D01*
X5072500Y7680000D01*
X5086958Y7679290D01*
X5086958Y7679290D01*
G37*
D14*
X4900000Y7385000D03*
D12*
G36*
X486958Y7679290D02*
G01*
X501276Y7677166D01*
X515317Y7673649D01*
X528946Y7668772D01*
X542031Y7662583D01*
X554447Y7655142D01*
X566073Y7646519D01*
X576798Y7636798D01*
X586519Y7626073D01*
X595142Y7614447D01*
X602583Y7602031D01*
X608772Y7588946D01*
X613649Y7575317D01*
X617166Y7561276D01*
X619290Y7546958D01*
X620000Y7532500D01*
X620000Y7237500D01*
X619290Y7223042D01*
X617166Y7208724D01*
X613649Y7194683D01*
X608772Y7181054D01*
X602583Y7167969D01*
X595142Y7155553D01*
X586519Y7143927D01*
X576798Y7133202D01*
X566073Y7123481D01*
X554447Y7114858D01*
X542031Y7107417D01*
X528946Y7101228D01*
X515317Y7096351D01*
X501276Y7092834D01*
X486958Y7090710D01*
X472500Y7090000D01*
X127500Y7090000D01*
X113042Y7090710D01*
X98724Y7092834D01*
X84683Y7096351D01*
X71054Y7101228D01*
X57969Y7107417D01*
X45553Y7114858D01*
X33927Y7123481D01*
X23202Y7133202D01*
X13481Y7143927D01*
X4858Y7155553D01*
X-2583Y7167969D01*
X-8772Y7181054D01*
X-13649Y7194683D01*
X-17166Y7208724D01*
X-19290Y7223042D01*
X-20000Y7237500D01*
X-20000Y7532500D01*
X-19290Y7546958D01*
X-17166Y7561276D01*
X-13649Y7575317D01*
X-8772Y7588946D01*
X-2583Y7602031D01*
X4858Y7614447D01*
X13481Y7626073D01*
X23202Y7636798D01*
X33927Y7646519D01*
X45553Y7655142D01*
X57969Y7662583D01*
X71054Y7668772D01*
X84683Y7673649D01*
X98724Y7677166D01*
X113042Y7679290D01*
X127500Y7680000D01*
X472500Y7680000D01*
X486958Y7679290D01*
X486958Y7679290D01*
G37*
D14*
X300000Y7385000D03*
D12*
G36*
X486958Y6709290D02*
G01*
X501276Y6707166D01*
X515317Y6703649D01*
X528946Y6698772D01*
X542031Y6692583D01*
X554447Y6685142D01*
X566073Y6676519D01*
X576798Y6666798D01*
X586519Y6656073D01*
X595142Y6644447D01*
X602583Y6632031D01*
X608772Y6618946D01*
X613649Y6605317D01*
X617166Y6591276D01*
X619290Y6576958D01*
X620000Y6562500D01*
X620000Y6267500D01*
X619290Y6253042D01*
X617166Y6238724D01*
X613649Y6224683D01*
X608772Y6211054D01*
X602583Y6197969D01*
X595142Y6185553D01*
X586519Y6173927D01*
X576798Y6163202D01*
X566073Y6153481D01*
X554447Y6144858D01*
X542031Y6137417D01*
X528946Y6131228D01*
X515317Y6126351D01*
X501276Y6122834D01*
X486958Y6120710D01*
X472500Y6120000D01*
X127500Y6120000D01*
X113042Y6120710D01*
X98724Y6122834D01*
X84683Y6126351D01*
X71054Y6131228D01*
X57969Y6137417D01*
X45553Y6144858D01*
X33927Y6153481D01*
X23202Y6163202D01*
X13481Y6173927D01*
X4858Y6185553D01*
X-2583Y6197969D01*
X-8772Y6211054D01*
X-13649Y6224683D01*
X-17166Y6238724D01*
X-19290Y6253042D01*
X-20000Y6267500D01*
X-20000Y6562500D01*
X-19290Y6576958D01*
X-17166Y6591276D01*
X-13649Y6605317D01*
X-8772Y6618946D01*
X-2583Y6632031D01*
X4858Y6644447D01*
X13481Y6656073D01*
X23202Y6666798D01*
X33927Y6676519D01*
X45553Y6685142D01*
X57969Y6692583D01*
X71054Y6698772D01*
X84683Y6703649D01*
X98724Y6707166D01*
X113042Y6709290D01*
X127500Y6710000D01*
X472500Y6710000D01*
X486958Y6709290D01*
X486958Y6709290D01*
G37*
D14*
X300000Y6415000D03*
D12*
G36*
X-4523042Y8519290D02*
G01*
X-4508724Y8517166D01*
X-4494683Y8513649D01*
X-4481054Y8508772D01*
X-4467969Y8502583D01*
X-4455553Y8495142D01*
X-4443927Y8486519D01*
X-4433202Y8476798D01*
X-4423481Y8466073D01*
X-4414858Y8454447D01*
X-4407417Y8442031D01*
X-4401228Y8428946D01*
X-4396351Y8415317D01*
X-4392834Y8401276D01*
X-4390710Y8386958D01*
X-4390000Y8372500D01*
X-4390000Y8027500D01*
X-4390710Y8013042D01*
X-4392834Y7998724D01*
X-4396351Y7984683D01*
X-4401228Y7971054D01*
X-4407417Y7957969D01*
X-4414858Y7945553D01*
X-4423481Y7933927D01*
X-4433202Y7923202D01*
X-4443927Y7913481D01*
X-4455553Y7904858D01*
X-4467969Y7897417D01*
X-4481054Y7891228D01*
X-4494683Y7886351D01*
X-4508724Y7882834D01*
X-4523042Y7880710D01*
X-4537500Y7880000D01*
X-4832500Y7880000D01*
X-4846958Y7880710D01*
X-4861276Y7882834D01*
X-4875317Y7886351D01*
X-4888946Y7891228D01*
X-4902031Y7897417D01*
X-4914447Y7904858D01*
X-4926073Y7913481D01*
X-4936798Y7923202D01*
X-4946519Y7933927D01*
X-4955142Y7945553D01*
X-4962583Y7957969D01*
X-4968772Y7971054D01*
X-4973649Y7984683D01*
X-4977166Y7998724D01*
X-4979290Y8013042D01*
X-4980000Y8027500D01*
X-4980000Y8372500D01*
X-4979290Y8386958D01*
X-4977166Y8401276D01*
X-4973649Y8415317D01*
X-4968772Y8428946D01*
X-4962583Y8442031D01*
X-4955142Y8454447D01*
X-4946519Y8466073D01*
X-4936798Y8476798D01*
X-4926073Y8486519D01*
X-4914447Y8495142D01*
X-4902031Y8502583D01*
X-4888946Y8508772D01*
X-4875317Y8513649D01*
X-4861276Y8517166D01*
X-4846958Y8519290D01*
X-4832500Y8520000D01*
X-4537500Y8520000D01*
X-4523042Y8519290D01*
X-4523042Y8519290D01*
G37*
D14*
X-4685000Y8200000D03*
D12*
G36*
X-3553042Y8519290D02*
G01*
X-3538724Y8517166D01*
X-3524683Y8513649D01*
X-3511054Y8508772D01*
X-3497969Y8502583D01*
X-3485553Y8495142D01*
X-3473927Y8486519D01*
X-3463202Y8476798D01*
X-3453481Y8466073D01*
X-3444858Y8454447D01*
X-3437417Y8442031D01*
X-3431228Y8428946D01*
X-3426351Y8415317D01*
X-3422834Y8401276D01*
X-3420710Y8386958D01*
X-3420000Y8372500D01*
X-3420000Y8027500D01*
X-3420710Y8013042D01*
X-3422834Y7998724D01*
X-3426351Y7984683D01*
X-3431228Y7971054D01*
X-3437417Y7957969D01*
X-3444858Y7945553D01*
X-3453481Y7933927D01*
X-3463202Y7923202D01*
X-3473927Y7913481D01*
X-3485553Y7904858D01*
X-3497969Y7897417D01*
X-3511054Y7891228D01*
X-3524683Y7886351D01*
X-3538724Y7882834D01*
X-3553042Y7880710D01*
X-3567500Y7880000D01*
X-3862500Y7880000D01*
X-3876958Y7880710D01*
X-3891276Y7882834D01*
X-3905317Y7886351D01*
X-3918946Y7891228D01*
X-3932031Y7897417D01*
X-3944447Y7904858D01*
X-3956073Y7913481D01*
X-3966798Y7923202D01*
X-3976519Y7933927D01*
X-3985142Y7945553D01*
X-3992583Y7957969D01*
X-3998772Y7971054D01*
X-4003649Y7984683D01*
X-4007166Y7998724D01*
X-4009290Y8013042D01*
X-4010000Y8027500D01*
X-4010000Y8372500D01*
X-4009290Y8386958D01*
X-4007166Y8401276D01*
X-4003649Y8415317D01*
X-3998772Y8428946D01*
X-3992583Y8442031D01*
X-3985142Y8454447D01*
X-3976519Y8466073D01*
X-3966798Y8476798D01*
X-3956073Y8486519D01*
X-3944447Y8495142D01*
X-3932031Y8502583D01*
X-3918946Y8508772D01*
X-3905317Y8513649D01*
X-3891276Y8517166D01*
X-3876958Y8519290D01*
X-3862500Y8520000D01*
X-3567500Y8520000D01*
X-3553042Y8519290D01*
X-3553042Y8519290D01*
G37*
D14*
X-3715000Y8200000D03*
D12*
G36*
X-3553042Y6719290D02*
G01*
X-3538724Y6717166D01*
X-3524683Y6713649D01*
X-3511054Y6708772D01*
X-3497969Y6702583D01*
X-3485553Y6695142D01*
X-3473927Y6686519D01*
X-3463202Y6676798D01*
X-3453481Y6666073D01*
X-3444858Y6654447D01*
X-3437417Y6642031D01*
X-3431228Y6628946D01*
X-3426351Y6615317D01*
X-3422834Y6601276D01*
X-3420710Y6586958D01*
X-3420000Y6572500D01*
X-3420000Y6227500D01*
X-3420710Y6213042D01*
X-3422834Y6198724D01*
X-3426351Y6184683D01*
X-3431228Y6171054D01*
X-3437417Y6157969D01*
X-3444858Y6145553D01*
X-3453481Y6133927D01*
X-3463202Y6123202D01*
X-3473927Y6113481D01*
X-3485553Y6104858D01*
X-3497969Y6097417D01*
X-3511054Y6091228D01*
X-3524683Y6086351D01*
X-3538724Y6082834D01*
X-3553042Y6080710D01*
X-3567500Y6080000D01*
X-3862500Y6080000D01*
X-3876958Y6080710D01*
X-3891276Y6082834D01*
X-3905317Y6086351D01*
X-3918946Y6091228D01*
X-3932031Y6097417D01*
X-3944447Y6104858D01*
X-3956073Y6113481D01*
X-3966798Y6123202D01*
X-3976519Y6133927D01*
X-3985142Y6145553D01*
X-3992583Y6157969D01*
X-3998772Y6171054D01*
X-4003649Y6184683D01*
X-4007166Y6198724D01*
X-4009290Y6213042D01*
X-4010000Y6227500D01*
X-4010000Y6572500D01*
X-4009290Y6586958D01*
X-4007166Y6601276D01*
X-4003649Y6615317D01*
X-3998772Y6628946D01*
X-3992583Y6642031D01*
X-3985142Y6654447D01*
X-3976519Y6666073D01*
X-3966798Y6676798D01*
X-3956073Y6686519D01*
X-3944447Y6695142D01*
X-3932031Y6702583D01*
X-3918946Y6708772D01*
X-3905317Y6713649D01*
X-3891276Y6717166D01*
X-3876958Y6719290D01*
X-3862500Y6720000D01*
X-3567500Y6720000D01*
X-3553042Y6719290D01*
X-3553042Y6719290D01*
G37*
D14*
X-3715000Y6400000D03*
D12*
G36*
X-4523042Y6719290D02*
G01*
X-4508724Y6717166D01*
X-4494683Y6713649D01*
X-4481054Y6708772D01*
X-4467969Y6702583D01*
X-4455553Y6695142D01*
X-4443927Y6686519D01*
X-4433202Y6676798D01*
X-4423481Y6666073D01*
X-4414858Y6654447D01*
X-4407417Y6642031D01*
X-4401228Y6628946D01*
X-4396351Y6615317D01*
X-4392834Y6601276D01*
X-4390710Y6586958D01*
X-4390000Y6572500D01*
X-4390000Y6227500D01*
X-4390710Y6213042D01*
X-4392834Y6198724D01*
X-4396351Y6184683D01*
X-4401228Y6171054D01*
X-4407417Y6157969D01*
X-4414858Y6145553D01*
X-4423481Y6133927D01*
X-4433202Y6123202D01*
X-4443927Y6113481D01*
X-4455553Y6104858D01*
X-4467969Y6097417D01*
X-4481054Y6091228D01*
X-4494683Y6086351D01*
X-4508724Y6082834D01*
X-4523042Y6080710D01*
X-4537500Y6080000D01*
X-4832500Y6080000D01*
X-4846958Y6080710D01*
X-4861276Y6082834D01*
X-4875317Y6086351D01*
X-4888946Y6091228D01*
X-4902031Y6097417D01*
X-4914447Y6104858D01*
X-4926073Y6113481D01*
X-4936798Y6123202D01*
X-4946519Y6133927D01*
X-4955142Y6145553D01*
X-4962583Y6157969D01*
X-4968772Y6171054D01*
X-4973649Y6184683D01*
X-4977166Y6198724D01*
X-4979290Y6213042D01*
X-4980000Y6227500D01*
X-4980000Y6572500D01*
X-4979290Y6586958D01*
X-4977166Y6601276D01*
X-4973649Y6615317D01*
X-4968772Y6628946D01*
X-4962583Y6642031D01*
X-4955142Y6654447D01*
X-4946519Y6666073D01*
X-4936798Y6676798D01*
X-4926073Y6686519D01*
X-4914447Y6695142D01*
X-4902031Y6702583D01*
X-4888946Y6708772D01*
X-4875317Y6713649D01*
X-4861276Y6717166D01*
X-4846958Y6719290D01*
X-4832500Y6720000D01*
X-4537500Y6720000D01*
X-4523042Y6719290D01*
X-4523042Y6719290D01*
G37*
D14*
X-4685000Y6400000D03*
D15*
X-2700000Y8625001D03*
X-2700000Y8125001D03*
X-2700000Y7625001D03*
X-2700000Y7125001D03*
X-900000Y7125001D03*
X-900000Y7625001D03*
X-900000Y8125001D03*
X-900000Y8625001D03*
D16*
X-1800000Y8225001D03*
X-1800000Y7525001D03*
M02*
