G04 #@! TF.GenerationSoftware,KiCad,Pcbnew,(5.1.2)-2*
G04 #@! TF.CreationDate,2019-09-12T19:32:37+02:00*
G04 #@! TF.ProjectId,braunAdapterUSBC,62726175-6e41-4646-9170-746572555342,rev?*
G04 #@! TF.SameCoordinates,Original*
G04 #@! TF.FileFunction,Soldermask,Top*
G04 #@! TF.FilePolarity,Negative*
%FSLAX46Y46*%
G04 Gerber Fmt 4.6, Leading zero omitted, Abs format (unit mm)*
G04 Created by KiCad (PCBNEW (5.1.2)-2) date 2019-09-12 19:32:37*
%MOMM*%
%LPD*%
G04 APERTURE LIST*
%ADD10C,0.100000*%
G04 APERTURE END LIST*
D10*
G36*
X-4401591Y-2095525D02*
G01*
X-4316575Y-2121314D01*
X-4238226Y-2163193D01*
X-4169551Y-2219552D01*
X-4113193Y-2288225D01*
X-4071314Y-2366574D01*
X-4045525Y-2451590D01*
X-4039000Y-2517842D01*
X-4039000Y-3162158D01*
X-4045525Y-3228410D01*
X-4071314Y-3313426D01*
X-4113193Y-3391775D01*
X-4169551Y-3460449D01*
X-4238225Y-3516807D01*
X-4316574Y-3558686D01*
X-4401590Y-3584475D01*
X-4490000Y-3593182D01*
X-4578409Y-3584475D01*
X-4663425Y-3558686D01*
X-4741774Y-3516807D01*
X-4810448Y-3460449D01*
X-4866805Y-3391776D01*
X-4908687Y-3313423D01*
X-4934475Y-3228410D01*
X-4941000Y-3162158D01*
X-4941000Y-2517843D01*
X-4934475Y-2451591D01*
X-4908686Y-2366575D01*
X-4866807Y-2288226D01*
X-4810448Y-2219551D01*
X-4741775Y-2163193D01*
X-4663426Y-2121314D01*
X-4578410Y-2095525D01*
X-4490000Y-2086818D01*
X-4401591Y-2095525D01*
X-4401591Y-2095525D01*
G37*
G36*
X4578409Y-2095525D02*
G01*
X4663425Y-2121314D01*
X4741774Y-2163193D01*
X4810449Y-2219552D01*
X4866807Y-2288225D01*
X4908686Y-2366574D01*
X4934475Y-2451590D01*
X4941000Y-2517842D01*
X4941000Y-3162158D01*
X4934475Y-3228410D01*
X4908686Y-3313426D01*
X4866807Y-3391775D01*
X4810449Y-3460449D01*
X4741775Y-3516807D01*
X4663426Y-3558686D01*
X4578410Y-3584475D01*
X4490000Y-3593182D01*
X4401591Y-3584475D01*
X4316575Y-3558686D01*
X4238226Y-3516807D01*
X4169552Y-3460449D01*
X4113195Y-3391776D01*
X4071313Y-3313423D01*
X4045525Y-3228410D01*
X4039000Y-3162158D01*
X4039000Y-2517843D01*
X4045525Y-2451591D01*
X4071314Y-2366575D01*
X4113193Y-2288226D01*
X4169552Y-2219551D01*
X4238225Y-2163193D01*
X4316574Y-2121314D01*
X4401590Y-2095525D01*
X4490000Y-2086818D01*
X4578409Y-2095525D01*
X4578409Y-2095525D01*
G37*
G36*
X-4041591Y3854475D02*
G01*
X-3956575Y3828686D01*
X-3878226Y3786807D01*
X-3809551Y3730448D01*
X-3753193Y3661775D01*
X-3711314Y3583426D01*
X-3685525Y3498410D01*
X-3679000Y3432158D01*
X-3679000Y2787842D01*
X-3685525Y2721590D01*
X-3711314Y2636574D01*
X-3753193Y2558225D01*
X-3809551Y2489551D01*
X-3878225Y2433193D01*
X-3956574Y2391314D01*
X-4041590Y2365525D01*
X-4130000Y2356818D01*
X-4218409Y2365525D01*
X-4303425Y2391314D01*
X-4381774Y2433193D01*
X-4450448Y2489551D01*
X-4506805Y2558224D01*
X-4548687Y2636577D01*
X-4574475Y2721590D01*
X-4581000Y2787842D01*
X-4581000Y3432157D01*
X-4574475Y3498409D01*
X-4548686Y3583425D01*
X-4506807Y3661774D01*
X-4450448Y3730449D01*
X-4381775Y3786807D01*
X-4303426Y3828686D01*
X-4218410Y3854475D01*
X-4130000Y3863182D01*
X-4041591Y3854475D01*
X-4041591Y3854475D01*
G37*
G36*
X3823710Y4730560D02*
G01*
X3894585Y4709060D01*
X3959904Y4674146D01*
X4017159Y4627159D01*
X4064146Y4569904D01*
X4099060Y4504585D01*
X4120560Y4433710D01*
X4127819Y4360000D01*
X4120560Y4286290D01*
X4099060Y4215415D01*
X4064146Y4150096D01*
X4017159Y4092842D01*
X4002297Y4080645D01*
X3984970Y4063318D01*
X3971356Y4042944D01*
X3961979Y4020305D01*
X3957198Y3996272D01*
X3957198Y3971768D01*
X3961978Y3947735D01*
X3971355Y3925096D01*
X3984969Y3904721D01*
X4002296Y3887394D01*
X4022670Y3873780D01*
X4045309Y3864403D01*
X4069342Y3859622D01*
X4093846Y3859622D01*
X4129999Y3863182D01*
X4130000Y3863182D01*
X4138707Y3862324D01*
X4218409Y3854475D01*
X4303425Y3828686D01*
X4381774Y3786807D01*
X4450449Y3730448D01*
X4506807Y3661775D01*
X4548686Y3583426D01*
X4574475Y3498410D01*
X4581000Y3432158D01*
X4581000Y2787842D01*
X4574475Y2721590D01*
X4548686Y2636574D01*
X4506807Y2558225D01*
X4450449Y2489551D01*
X4381775Y2433193D01*
X4303426Y2391314D01*
X4218410Y2365525D01*
X4130000Y2356818D01*
X4041591Y2365525D01*
X3956575Y2391314D01*
X3878226Y2433193D01*
X3809552Y2489551D01*
X3753195Y2558224D01*
X3711313Y2636577D01*
X3685525Y2721590D01*
X3679000Y2787842D01*
X3679000Y3432157D01*
X3685525Y3498409D01*
X3711314Y3583425D01*
X3753193Y3661774D01*
X3809552Y3730449D01*
X3848454Y3762375D01*
X3865781Y3779702D01*
X3879395Y3800077D01*
X3888772Y3822715D01*
X3893553Y3846749D01*
X3893553Y3871253D01*
X3888773Y3895286D01*
X3879395Y3917925D01*
X3865782Y3938299D01*
X3848455Y3955626D01*
X3828080Y3969240D01*
X3805442Y3978617D01*
X3781408Y3983398D01*
X3769156Y3984000D01*
X3431528Y3984000D01*
X3376290Y3989440D01*
X3305415Y4010940D01*
X3240096Y4045854D01*
X3182841Y4092841D01*
X3135854Y4150096D01*
X3100940Y4215415D01*
X3079440Y4286290D01*
X3072181Y4360000D01*
X3079440Y4433707D01*
X3086723Y4457716D01*
X3091503Y4481750D01*
X3091503Y4506254D01*
X3086722Y4530287D01*
X3077345Y4552926D01*
X3065936Y4570000D01*
X3075999Y4569009D01*
X3100385Y4571411D01*
X3123834Y4578524D01*
X3145445Y4590075D01*
X3164387Y4605620D01*
X3172625Y4614710D01*
X3182841Y4627159D01*
X3240096Y4674146D01*
X3305415Y4709060D01*
X3376290Y4730560D01*
X3431528Y4736000D01*
X3768472Y4736000D01*
X3823710Y4730560D01*
X3823710Y4730560D01*
G37*
G36*
X2701000Y2919000D02*
G01*
X-3201000Y2919000D01*
X-3201000Y3721000D01*
X2701000Y3721000D01*
X2701000Y2919000D01*
X2701000Y2919000D01*
G37*
G36*
X-3490328Y4721551D02*
G01*
X-3490326Y4721550D01*
X-3490325Y4721550D01*
X-3421897Y4693207D01*
X-3360314Y4652058D01*
X-3307942Y4599686D01*
X-3266793Y4538103D01*
X-3238450Y4469675D01*
X-3238449Y4469672D01*
X-3224000Y4397034D01*
X-3224000Y4322966D01*
X-3231295Y4286291D01*
X-3238450Y4250325D01*
X-3266793Y4181897D01*
X-3307942Y4120314D01*
X-3360314Y4067942D01*
X-3421897Y4026793D01*
X-3490325Y3998450D01*
X-3490326Y3998450D01*
X-3490328Y3998449D01*
X-3562966Y3984000D01*
X-3637034Y3984000D01*
X-3709672Y3998449D01*
X-3709674Y3998450D01*
X-3709675Y3998450D01*
X-3778103Y4026793D01*
X-3839686Y4067942D01*
X-3892058Y4120314D01*
X-3933207Y4181897D01*
X-3961550Y4250325D01*
X-3968704Y4286291D01*
X-3976000Y4322966D01*
X-3976000Y4397034D01*
X-3961551Y4469672D01*
X-3961550Y4469675D01*
X-3933207Y4538103D01*
X-3892058Y4599686D01*
X-3839686Y4652058D01*
X-3778103Y4693207D01*
X-3709675Y4721550D01*
X-3709674Y4721550D01*
X-3709672Y4721551D01*
X-3637034Y4736000D01*
X-3562966Y4736000D01*
X-3490328Y4721551D01*
X-3490328Y4721551D01*
G37*
G36*
X2951000Y4694008D02*
G01*
X2953402Y4669622D01*
X2960515Y4646173D01*
X2972066Y4624562D01*
X2977951Y4617391D01*
X2967106Y4619000D01*
X-2951000Y4619000D01*
X-2951000Y5421000D01*
X2951000Y5421000D01*
X2951000Y4694008D01*
X2951000Y4694008D01*
G37*
G36*
X-3458062Y6768284D02*
G01*
X-3437443Y6762029D01*
X-3418447Y6751876D01*
X-3401792Y6738208D01*
X-3388124Y6721553D01*
X-3377971Y6702557D01*
X-3371716Y6681938D01*
X-3369000Y6654360D01*
X-3369000Y6145640D01*
X-3371716Y6118062D01*
X-3377971Y6097443D01*
X-3388124Y6078447D01*
X-3401792Y6061792D01*
X-3418447Y6048124D01*
X-3437443Y6037971D01*
X-3458062Y6031716D01*
X-3485640Y6029000D01*
X-3944360Y6029000D01*
X-3971938Y6031716D01*
X-3992557Y6037971D01*
X-4011553Y6048124D01*
X-4028208Y6061792D01*
X-4041876Y6078447D01*
X-4052029Y6097443D01*
X-4058284Y6118062D01*
X-4061000Y6145640D01*
X-4061000Y6654360D01*
X-4058284Y6681938D01*
X-4052029Y6702557D01*
X-4041876Y6721553D01*
X-4028208Y6738208D01*
X-4011553Y6751876D01*
X-3992557Y6762029D01*
X-3971938Y6768284D01*
X-3944360Y6771000D01*
X-3485640Y6771000D01*
X-3458062Y6768284D01*
X-3458062Y6768284D01*
G37*
G36*
X-4428062Y6768284D02*
G01*
X-4407443Y6762029D01*
X-4388447Y6751876D01*
X-4371792Y6738208D01*
X-4358124Y6721553D01*
X-4347971Y6702557D01*
X-4341716Y6681938D01*
X-4339000Y6654360D01*
X-4339000Y6145640D01*
X-4341716Y6118062D01*
X-4347971Y6097443D01*
X-4358124Y6078447D01*
X-4371792Y6061792D01*
X-4388447Y6048124D01*
X-4407443Y6037971D01*
X-4428062Y6031716D01*
X-4455640Y6029000D01*
X-4914360Y6029000D01*
X-4941938Y6031716D01*
X-4962557Y6037971D01*
X-4981553Y6048124D01*
X-4998208Y6061792D01*
X-5011876Y6078447D01*
X-5022029Y6097443D01*
X-5028284Y6118062D01*
X-5031000Y6145640D01*
X-5031000Y6654360D01*
X-5028284Y6681938D01*
X-5022029Y6702557D01*
X-5011876Y6721553D01*
X-4998208Y6738208D01*
X-4981553Y6751876D01*
X-4962557Y6762029D01*
X-4941938Y6768284D01*
X-4914360Y6771000D01*
X-4455640Y6771000D01*
X-4428062Y6768284D01*
X-4428062Y6768284D01*
G37*
G36*
X5181938Y6758284D02*
G01*
X5202557Y6752029D01*
X5221553Y6741876D01*
X5238208Y6728208D01*
X5251876Y6711553D01*
X5262029Y6692557D01*
X5268284Y6671938D01*
X5271000Y6644360D01*
X5271000Y6185640D01*
X5268284Y6158062D01*
X5262029Y6137443D01*
X5251876Y6118447D01*
X5238208Y6101792D01*
X5221553Y6088124D01*
X5202557Y6077971D01*
X5181938Y6071716D01*
X5154360Y6069000D01*
X4645640Y6069000D01*
X4618062Y6071716D01*
X4597443Y6077971D01*
X4578447Y6088124D01*
X4561792Y6101792D01*
X4548124Y6118447D01*
X4537971Y6137443D01*
X4531716Y6158062D01*
X4529000Y6185640D01*
X4529000Y6644360D01*
X4531716Y6671938D01*
X4537971Y6692557D01*
X4548124Y6711553D01*
X4561792Y6728208D01*
X4578447Y6741876D01*
X4597443Y6752029D01*
X4618062Y6758284D01*
X4645640Y6761000D01*
X5154360Y6761000D01*
X5181938Y6758284D01*
X5181938Y6758284D01*
G37*
G36*
X581938Y6758284D02*
G01*
X602557Y6752029D01*
X621553Y6741876D01*
X638208Y6728208D01*
X651876Y6711553D01*
X662029Y6692557D01*
X668284Y6671938D01*
X671000Y6644360D01*
X671000Y6185640D01*
X668284Y6158062D01*
X662029Y6137443D01*
X651876Y6118447D01*
X638208Y6101792D01*
X621553Y6088124D01*
X602557Y6077971D01*
X581938Y6071716D01*
X554360Y6069000D01*
X45640Y6069000D01*
X18062Y6071716D01*
X-2557Y6077971D01*
X-21553Y6088124D01*
X-38208Y6101792D01*
X-51876Y6118447D01*
X-62029Y6137443D01*
X-68284Y6158062D01*
X-71000Y6185640D01*
X-71000Y6644360D01*
X-68284Y6671938D01*
X-62029Y6692557D01*
X-51876Y6711553D01*
X-38208Y6728208D01*
X-21553Y6741876D01*
X-2557Y6752029D01*
X18062Y6758284D01*
X45640Y6761000D01*
X554360Y6761000D01*
X581938Y6758284D01*
X581938Y6758284D01*
G37*
G36*
X3909468Y7646435D02*
G01*
X3948138Y7634704D01*
X3983777Y7615654D01*
X4015017Y7590017D01*
X4040654Y7558777D01*
X4059704Y7523138D01*
X4071435Y7484468D01*
X4076000Y7438112D01*
X4076000Y6361888D01*
X4071435Y6315532D01*
X4059704Y6276862D01*
X4040654Y6241223D01*
X4015017Y6209983D01*
X3983777Y6184346D01*
X3948138Y6165296D01*
X3909468Y6153565D01*
X3863112Y6149000D01*
X3211888Y6149000D01*
X3165532Y6153565D01*
X3126862Y6165296D01*
X3091223Y6184346D01*
X3059983Y6209983D01*
X3034346Y6241223D01*
X3015296Y6276862D01*
X3003565Y6315532D01*
X2999000Y6361888D01*
X2999000Y7438112D01*
X3003565Y7484468D01*
X3015296Y7523138D01*
X3034346Y7558777D01*
X3059983Y7590017D01*
X3091223Y7615654D01*
X3126862Y7634704D01*
X3165532Y7646435D01*
X3211888Y7651000D01*
X3863112Y7651000D01*
X3909468Y7646435D01*
X3909468Y7646435D01*
G37*
G36*
X2034468Y7646435D02*
G01*
X2073138Y7634704D01*
X2108777Y7615654D01*
X2140017Y7590017D01*
X2165654Y7558777D01*
X2184704Y7523138D01*
X2196435Y7484468D01*
X2201000Y7438112D01*
X2201000Y6361888D01*
X2196435Y6315532D01*
X2184704Y6276862D01*
X2165654Y6241223D01*
X2140017Y6209983D01*
X2108777Y6184346D01*
X2073138Y6165296D01*
X2034468Y6153565D01*
X1988112Y6149000D01*
X1336888Y6149000D01*
X1290532Y6153565D01*
X1251862Y6165296D01*
X1216223Y6184346D01*
X1184983Y6209983D01*
X1159346Y6241223D01*
X1140296Y6276862D01*
X1128565Y6315532D01*
X1124000Y6361888D01*
X1124000Y7438112D01*
X1128565Y7484468D01*
X1140296Y7523138D01*
X1159346Y7558777D01*
X1184983Y7590017D01*
X1216223Y7615654D01*
X1251862Y7634704D01*
X1290532Y7646435D01*
X1336888Y7651000D01*
X1988112Y7651000D01*
X2034468Y7646435D01*
X2034468Y7646435D01*
G37*
G36*
X-2449000Y8701000D02*
G01*
X-2446598Y8676614D01*
X-2439485Y8653165D01*
X-2427934Y8631554D01*
X-2412389Y8612612D01*
X-2393447Y8597067D01*
X-2371836Y8585516D01*
X-2348387Y8578403D01*
X-2324001Y8576001D01*
X-1275999Y8576001D01*
X-1251613Y8578403D01*
X-1228164Y8585516D01*
X-1206553Y8597067D01*
X-1187611Y8612612D01*
X-1172066Y8631554D01*
X-1160515Y8653165D01*
X-1153402Y8676614D01*
X-1151000Y8701000D01*
X-1151000Y8791001D01*
X-649000Y8791001D01*
X-649000Y6959001D01*
X-1151000Y6959001D01*
X-1151000Y7049002D01*
X-1153402Y7073388D01*
X-1160515Y7096837D01*
X-1172066Y7118448D01*
X-1187611Y7137390D01*
X-1206553Y7152935D01*
X-1228164Y7164486D01*
X-1251613Y7171599D01*
X-1275999Y7174001D01*
X-2324001Y7174001D01*
X-2348387Y7171599D01*
X-2371836Y7164486D01*
X-2393447Y7152935D01*
X-2412389Y7137390D01*
X-2427934Y7118448D01*
X-2439485Y7096837D01*
X-2446598Y7073388D01*
X-2449000Y7049002D01*
X-2449000Y6959001D01*
X-2951000Y6959001D01*
X-2951000Y8791001D01*
X-2449000Y8791001D01*
X-2449000Y8701000D01*
X-2449000Y8701000D01*
G37*
G36*
X581938Y7728284D02*
G01*
X602557Y7722029D01*
X621553Y7711876D01*
X638208Y7698208D01*
X651876Y7681553D01*
X662029Y7662557D01*
X668284Y7641938D01*
X671000Y7614360D01*
X671000Y7155640D01*
X668284Y7128062D01*
X662029Y7107443D01*
X651876Y7088447D01*
X638208Y7071792D01*
X621553Y7058124D01*
X602557Y7047971D01*
X581938Y7041716D01*
X554360Y7039000D01*
X45640Y7039000D01*
X18062Y7041716D01*
X-2557Y7047971D01*
X-21553Y7058124D01*
X-38208Y7071792D01*
X-51876Y7088447D01*
X-62029Y7107443D01*
X-68284Y7128062D01*
X-71000Y7155640D01*
X-71000Y7614360D01*
X-68284Y7641938D01*
X-62029Y7662557D01*
X-51876Y7681553D01*
X-38208Y7698208D01*
X-21553Y7711876D01*
X-2557Y7722029D01*
X18062Y7728284D01*
X45640Y7731000D01*
X554360Y7731000D01*
X581938Y7728284D01*
X581938Y7728284D01*
G37*
G36*
X5181938Y7728284D02*
G01*
X5202557Y7722029D01*
X5221553Y7711876D01*
X5238208Y7698208D01*
X5251876Y7681553D01*
X5262029Y7662557D01*
X5268284Y7641938D01*
X5271000Y7614360D01*
X5271000Y7155640D01*
X5268284Y7128062D01*
X5262029Y7107443D01*
X5251876Y7088447D01*
X5238208Y7071792D01*
X5221553Y7058124D01*
X5202557Y7047971D01*
X5181938Y7041716D01*
X5154360Y7039000D01*
X4645640Y7039000D01*
X4618062Y7041716D01*
X4597443Y7047971D01*
X4578447Y7058124D01*
X4561792Y7071792D01*
X4548124Y7088447D01*
X4537971Y7107443D01*
X4531716Y7128062D01*
X4529000Y7155640D01*
X4529000Y7614360D01*
X4531716Y7641938D01*
X4537971Y7662557D01*
X4548124Y7681553D01*
X4561792Y7698208D01*
X4578447Y7711876D01*
X4597443Y7722029D01*
X4618062Y7728284D01*
X4645640Y7731000D01*
X5154360Y7731000D01*
X5181938Y7728284D01*
X5181938Y7728284D01*
G37*
G36*
X-3458062Y8568284D02*
G01*
X-3437443Y8562029D01*
X-3418447Y8551876D01*
X-3401792Y8538208D01*
X-3388124Y8521553D01*
X-3377971Y8502557D01*
X-3371716Y8481938D01*
X-3369000Y8454360D01*
X-3369000Y7945640D01*
X-3371716Y7918062D01*
X-3377971Y7897443D01*
X-3388124Y7878447D01*
X-3401792Y7861792D01*
X-3418447Y7848124D01*
X-3437443Y7837971D01*
X-3458062Y7831716D01*
X-3485640Y7829000D01*
X-3944360Y7829000D01*
X-3971938Y7831716D01*
X-3992557Y7837971D01*
X-4011553Y7848124D01*
X-4028208Y7861792D01*
X-4041876Y7878447D01*
X-4052029Y7897443D01*
X-4058284Y7918062D01*
X-4061000Y7945640D01*
X-4061000Y8454360D01*
X-4058284Y8481938D01*
X-4052029Y8502557D01*
X-4041876Y8521553D01*
X-4028208Y8538208D01*
X-4011553Y8551876D01*
X-3992557Y8562029D01*
X-3971938Y8568284D01*
X-3944360Y8571000D01*
X-3485640Y8571000D01*
X-3458062Y8568284D01*
X-3458062Y8568284D01*
G37*
G36*
X-4428062Y8568284D02*
G01*
X-4407443Y8562029D01*
X-4388447Y8551876D01*
X-4371792Y8538208D01*
X-4358124Y8521553D01*
X-4347971Y8502557D01*
X-4341716Y8481938D01*
X-4339000Y8454360D01*
X-4339000Y7945640D01*
X-4341716Y7918062D01*
X-4347971Y7897443D01*
X-4358124Y7878447D01*
X-4371792Y7861792D01*
X-4388447Y7848124D01*
X-4407443Y7837971D01*
X-4428062Y7831716D01*
X-4455640Y7829000D01*
X-4914360Y7829000D01*
X-4941938Y7831716D01*
X-4962557Y7837971D01*
X-4981553Y7848124D01*
X-4998208Y7861792D01*
X-5011876Y7878447D01*
X-5022029Y7897443D01*
X-5028284Y7918062D01*
X-5031000Y7945640D01*
X-5031000Y8454360D01*
X-5028284Y8481938D01*
X-5022029Y8502557D01*
X-5011876Y8521553D01*
X-4998208Y8538208D01*
X-4981553Y8551876D01*
X-4962557Y8562029D01*
X-4941938Y8568284D01*
X-4914360Y8571000D01*
X-4455640Y8571000D01*
X-4428062Y8568284D01*
X-4428062Y8568284D01*
G37*
G36*
X1501000Y8549000D02*
G01*
X-101000Y8549000D01*
X-101000Y12851000D01*
X1501000Y12851000D01*
X1501000Y8549000D01*
X1501000Y8549000D01*
G37*
G36*
X5101000Y8549000D02*
G01*
X3499000Y8549000D01*
X3499000Y12851000D01*
X5101000Y12851000D01*
X5101000Y8549000D01*
X5101000Y8549000D01*
G37*
G36*
X-3893436Y11010611D02*
G01*
X-3702167Y10931385D01*
X-3702165Y10931384D01*
X-3530027Y10816365D01*
X-3383635Y10669973D01*
X-3268615Y10497833D01*
X-3189389Y10306564D01*
X-3149000Y10103516D01*
X-3149000Y9896484D01*
X-3189389Y9693436D01*
X-3211224Y9640722D01*
X-3268616Y9502165D01*
X-3383635Y9330027D01*
X-3530027Y9183635D01*
X-3702165Y9068616D01*
X-3702166Y9068615D01*
X-3702167Y9068615D01*
X-3893436Y8989389D01*
X-4096484Y8949000D01*
X-4303516Y8949000D01*
X-4506564Y8989389D01*
X-4697833Y9068615D01*
X-4697834Y9068615D01*
X-4697835Y9068616D01*
X-4869973Y9183635D01*
X-5016365Y9330027D01*
X-5131384Y9502165D01*
X-5188776Y9640722D01*
X-5210611Y9693436D01*
X-5251000Y9896484D01*
X-5251000Y10103516D01*
X-5210611Y10306564D01*
X-5131385Y10497833D01*
X-5016365Y10669973D01*
X-4869973Y10816365D01*
X-4697835Y10931384D01*
X-4697833Y10931385D01*
X-4506564Y11010611D01*
X-4303516Y11051000D01*
X-4096484Y11051000D01*
X-3893436Y11010611D01*
X-3893436Y11010611D01*
G37*
G36*
X-1115532Y10496435D02*
G01*
X-1076862Y10484704D01*
X-1041223Y10465654D01*
X-1009983Y10440017D01*
X-984346Y10408777D01*
X-965296Y10373138D01*
X-953565Y10334468D01*
X-949000Y10288112D01*
X-949000Y9636888D01*
X-953565Y9590532D01*
X-965296Y9551862D01*
X-984346Y9516223D01*
X-1009983Y9484983D01*
X-1041223Y9459346D01*
X-1076862Y9440296D01*
X-1115532Y9428565D01*
X-1161888Y9424000D01*
X-2238112Y9424000D01*
X-2284468Y9428565D01*
X-2323138Y9440296D01*
X-2358777Y9459346D01*
X-2390017Y9484983D01*
X-2415654Y9516223D01*
X-2434704Y9551862D01*
X-2446435Y9590532D01*
X-2451000Y9636888D01*
X-2451000Y10288112D01*
X-2446435Y10334468D01*
X-2434704Y10373138D01*
X-2415654Y10408777D01*
X-2390017Y10440017D01*
X-2358777Y10465654D01*
X-2323138Y10484704D01*
X-2284468Y10496435D01*
X-2238112Y10501000D01*
X-1161888Y10501000D01*
X-1115532Y10496435D01*
X-1115532Y10496435D01*
G37*
G36*
X-1115532Y12371435D02*
G01*
X-1076862Y12359704D01*
X-1041223Y12340654D01*
X-1009983Y12315017D01*
X-984346Y12283777D01*
X-965296Y12248138D01*
X-953565Y12209468D01*
X-949000Y12163112D01*
X-949000Y11511888D01*
X-953565Y11465532D01*
X-965296Y11426862D01*
X-984346Y11391223D01*
X-1009983Y11359983D01*
X-1041223Y11334346D01*
X-1076862Y11315296D01*
X-1115532Y11303565D01*
X-1161888Y11299000D01*
X-2238112Y11299000D01*
X-2284468Y11303565D01*
X-2323138Y11315296D01*
X-2358777Y11334346D01*
X-2390017Y11359983D01*
X-2415654Y11391223D01*
X-2434704Y11426862D01*
X-2446435Y11465532D01*
X-2451000Y11511888D01*
X-2451000Y12163112D01*
X-2446435Y12209468D01*
X-2434704Y12248138D01*
X-2415654Y12283777D01*
X-2390017Y12315017D01*
X-2358777Y12340654D01*
X-2323138Y12359704D01*
X-2284468Y12371435D01*
X-2238112Y12376000D01*
X-1161888Y12376000D01*
X-1115532Y12371435D01*
X-1115532Y12371435D01*
G37*
G36*
X-3893436Y14110611D02*
G01*
X-3702167Y14031385D01*
X-3702165Y14031384D01*
X-3530027Y13916365D01*
X-3383635Y13769973D01*
X-3268615Y13597833D01*
X-3189389Y13406564D01*
X-3149000Y13203516D01*
X-3149000Y12996484D01*
X-3189389Y12793436D01*
X-3268615Y12602167D01*
X-3268616Y12602165D01*
X-3383635Y12430027D01*
X-3530027Y12283635D01*
X-3702165Y12168616D01*
X-3702166Y12168615D01*
X-3702167Y12168615D01*
X-3893436Y12089389D01*
X-4096484Y12049000D01*
X-4303516Y12049000D01*
X-4506564Y12089389D01*
X-4697833Y12168615D01*
X-4697834Y12168615D01*
X-4697835Y12168616D01*
X-4869973Y12283635D01*
X-5016365Y12430027D01*
X-5131384Y12602165D01*
X-5131385Y12602167D01*
X-5210611Y12793436D01*
X-5251000Y12996484D01*
X-5251000Y13203516D01*
X-5210611Y13406564D01*
X-5131385Y13597833D01*
X-5016365Y13769973D01*
X-4869973Y13916365D01*
X-4697835Y14031384D01*
X-4697833Y14031385D01*
X-4506564Y14110611D01*
X-4303516Y14151000D01*
X-4096484Y14151000D01*
X-3893436Y14110611D01*
X-3893436Y14110611D01*
G37*
M02*
