G04 #@! TF.GenerationSoftware,KiCad,Pcbnew,(5.1.2)-2*
G04 #@! TF.CreationDate,2019-09-12T19:32:37+02:00*
G04 #@! TF.ProjectId,braunAdapterUSBC,62726175-6e41-4646-9170-746572555342,rev?*
G04 #@! TF.SameCoordinates,Original*
G04 #@! TF.FileFunction,Copper,L2,Bot*
G04 #@! TF.FilePolarity,Positive*
%FSLAX46Y46*%
G04 Gerber Fmt 4.6, Leading zero omitted, Abs format (unit mm)*
G04 Created by KiCad (PCBNEW (5.1.2)-2) date 2019-09-12 19:32:37*
%MOMM*%
%LPD*%
G04 APERTURE LIST*
%ADD10O,0.800000X1.400000*%
%ADD11C,2.000000*%
%ADD12C,0.600000*%
%ADD13R,0.800000X1.300000*%
%ADD14C,0.800000*%
%ADD15C,0.250000*%
%ADD16C,0.254000*%
G04 APERTURE END LIST*
D10*
X-4130000Y3110000D03*
X4130000Y3110000D03*
X4490000Y-2840000D03*
X-4490000Y-2840000D03*
D11*
X-4200000Y13100000D03*
X-4200000Y10000000D03*
D12*
X-1800000Y8225001D03*
X-1800000Y7525001D03*
D13*
X-1800000Y7875001D03*
D14*
X800000Y8000000D03*
X-4200000Y7300000D03*
X-1519496Y2469231D03*
D15*
X4130000Y-2480000D02*
X4490000Y-2840000D01*
X4130000Y3110000D02*
X4130000Y-2480000D01*
X-4130000Y-2480000D02*
X-4490000Y-2840000D01*
X-4130000Y3110000D02*
X-4130000Y-2480000D01*
X-3840000Y-2840000D02*
X4490000Y-2840000D01*
X-4490000Y-2840000D02*
X-3840000Y-2840000D01*
X-3674999Y10000000D02*
X-4200000Y10000000D01*
X-1800000Y8125001D02*
X-3674999Y10000000D01*
X-1800000Y7875001D02*
X-1800000Y8125001D01*
X-5225002Y8974998D02*
X-5225002Y4505002D01*
X-4200000Y10000000D02*
X-5225002Y8974998D01*
X-5225002Y4505002D02*
X-4130000Y3410000D01*
X-4130000Y3410000D02*
X-4130000Y3110000D01*
X-1574999Y8000000D02*
X-1800000Y8225001D01*
X800000Y8000000D02*
X-1574999Y8000000D01*
X-4200000Y7300000D02*
X-1519496Y4619496D01*
X-1519496Y4619496D02*
X-1519496Y2469231D01*
D16*
G36*
X5340001Y-3340000D02*
G01*
X-5340000Y-3340000D01*
X-5340000Y7401939D01*
X-5235000Y7401939D01*
X-5235000Y7198061D01*
X-5195226Y6998102D01*
X-5117205Y6809744D01*
X-5003937Y6640226D01*
X-4859774Y6496063D01*
X-4690256Y6382795D01*
X-4501898Y6304774D01*
X-4301939Y6265000D01*
X-4239801Y6265000D01*
X-3214020Y5239219D01*
X-3319978Y5283108D01*
X-3505448Y5320000D01*
X-3694552Y5320000D01*
X-3880022Y5283108D01*
X-4054731Y5210741D01*
X-4211964Y5105681D01*
X-4345681Y4971964D01*
X-4450741Y4814731D01*
X-4523108Y4640022D01*
X-4560000Y4454552D01*
X-4560000Y4265448D01*
X-4523108Y4079978D01*
X-4450741Y3905269D01*
X-4345681Y3748036D01*
X-4211964Y3614319D01*
X-4054731Y3509259D01*
X-3880022Y3436892D01*
X-3694552Y3400000D01*
X-3505448Y3400000D01*
X-3319978Y3436892D01*
X-3145269Y3509259D01*
X-2988036Y3614319D01*
X-2854319Y3748036D01*
X-2749259Y3905269D01*
X-2676892Y4079978D01*
X-2640000Y4265448D01*
X-2640000Y4454552D01*
X-2676892Y4640022D01*
X-2720781Y4745979D01*
X-2279496Y4304694D01*
X-2279495Y3172943D01*
X-2323433Y3129005D01*
X-2436701Y2959487D01*
X-2514722Y2771129D01*
X-2554496Y2571170D01*
X-2554496Y2367292D01*
X-2514722Y2167333D01*
X-2436701Y1978975D01*
X-2323433Y1809457D01*
X-2179270Y1665294D01*
X-2009752Y1552026D01*
X-1821394Y1474005D01*
X-1621435Y1434231D01*
X-1417557Y1434231D01*
X-1217598Y1474005D01*
X-1029240Y1552026D01*
X-859722Y1665294D01*
X-715559Y1809457D01*
X-602291Y1978975D01*
X-524270Y2167333D01*
X-484496Y2367292D01*
X-484496Y2571170D01*
X-524270Y2771129D01*
X-602291Y2959487D01*
X-715559Y3129005D01*
X-759496Y3172942D01*
X-759496Y4360000D01*
X2485355Y4360000D01*
X2503890Y4171807D01*
X2558784Y3990846D01*
X2647927Y3824072D01*
X2767893Y3677893D01*
X2914072Y3557927D01*
X3080846Y3468784D01*
X3261807Y3413890D01*
X3402838Y3400000D01*
X3797162Y3400000D01*
X3938193Y3413890D01*
X4119154Y3468784D01*
X4285928Y3557927D01*
X4432107Y3677893D01*
X4552073Y3824072D01*
X4641216Y3990846D01*
X4696110Y4171807D01*
X4714645Y4360000D01*
X4696110Y4548193D01*
X4641216Y4729154D01*
X4552073Y4895928D01*
X4432107Y5042107D01*
X4285928Y5162073D01*
X4119154Y5251216D01*
X3938193Y5306110D01*
X3797162Y5320000D01*
X3402838Y5320000D01*
X3261807Y5306110D01*
X3080846Y5251216D01*
X2914072Y5162073D01*
X2767893Y5042107D01*
X2647927Y4895928D01*
X2558784Y4729154D01*
X2503890Y4548193D01*
X2485355Y4360000D01*
X-759496Y4360000D01*
X-759496Y4582174D01*
X-755820Y4619497D01*
X-759496Y4656820D01*
X-759496Y4656829D01*
X-770493Y4768482D01*
X-813950Y4911743D01*
X-846139Y4971964D01*
X-884522Y5043773D01*
X-955697Y5130499D01*
X-979495Y5159497D01*
X-1008492Y5183294D01*
X-3165000Y7339801D01*
X-3165000Y7401939D01*
X-3204774Y7601898D01*
X-3282795Y7790256D01*
X-3396063Y7959774D01*
X-3540226Y8103937D01*
X-3709744Y8217205D01*
X-3898102Y8295226D01*
X-4098061Y8335000D01*
X-4301939Y8335000D01*
X-4501898Y8295226D01*
X-4690256Y8217205D01*
X-4859774Y8103937D01*
X-5003937Y7959774D01*
X-5117205Y7790256D01*
X-5195226Y7601898D01*
X-5235000Y7401939D01*
X-5340000Y7401939D01*
X-5340000Y11927761D01*
X-5242252Y11830013D01*
X-4974463Y11651082D01*
X-4676912Y11527832D01*
X-4361033Y11465000D01*
X-4038967Y11465000D01*
X-3723088Y11527832D01*
X-3425537Y11651082D01*
X-3157748Y11830013D01*
X-2930013Y12057748D01*
X-2751082Y12325537D01*
X-2627832Y12623088D01*
X-2565000Y12938967D01*
X-2565000Y13261033D01*
X-2627832Y13576912D01*
X-2751082Y13874463D01*
X-2930013Y14142252D01*
X-3127761Y14340000D01*
X5340000Y14340000D01*
X5340001Y-3340000D01*
X5340001Y-3340000D01*
G37*
X5340001Y-3340000D02*
X-5340000Y-3340000D01*
X-5340000Y7401939D01*
X-5235000Y7401939D01*
X-5235000Y7198061D01*
X-5195226Y6998102D01*
X-5117205Y6809744D01*
X-5003937Y6640226D01*
X-4859774Y6496063D01*
X-4690256Y6382795D01*
X-4501898Y6304774D01*
X-4301939Y6265000D01*
X-4239801Y6265000D01*
X-3214020Y5239219D01*
X-3319978Y5283108D01*
X-3505448Y5320000D01*
X-3694552Y5320000D01*
X-3880022Y5283108D01*
X-4054731Y5210741D01*
X-4211964Y5105681D01*
X-4345681Y4971964D01*
X-4450741Y4814731D01*
X-4523108Y4640022D01*
X-4560000Y4454552D01*
X-4560000Y4265448D01*
X-4523108Y4079978D01*
X-4450741Y3905269D01*
X-4345681Y3748036D01*
X-4211964Y3614319D01*
X-4054731Y3509259D01*
X-3880022Y3436892D01*
X-3694552Y3400000D01*
X-3505448Y3400000D01*
X-3319978Y3436892D01*
X-3145269Y3509259D01*
X-2988036Y3614319D01*
X-2854319Y3748036D01*
X-2749259Y3905269D01*
X-2676892Y4079978D01*
X-2640000Y4265448D01*
X-2640000Y4454552D01*
X-2676892Y4640022D01*
X-2720781Y4745979D01*
X-2279496Y4304694D01*
X-2279495Y3172943D01*
X-2323433Y3129005D01*
X-2436701Y2959487D01*
X-2514722Y2771129D01*
X-2554496Y2571170D01*
X-2554496Y2367292D01*
X-2514722Y2167333D01*
X-2436701Y1978975D01*
X-2323433Y1809457D01*
X-2179270Y1665294D01*
X-2009752Y1552026D01*
X-1821394Y1474005D01*
X-1621435Y1434231D01*
X-1417557Y1434231D01*
X-1217598Y1474005D01*
X-1029240Y1552026D01*
X-859722Y1665294D01*
X-715559Y1809457D01*
X-602291Y1978975D01*
X-524270Y2167333D01*
X-484496Y2367292D01*
X-484496Y2571170D01*
X-524270Y2771129D01*
X-602291Y2959487D01*
X-715559Y3129005D01*
X-759496Y3172942D01*
X-759496Y4360000D01*
X2485355Y4360000D01*
X2503890Y4171807D01*
X2558784Y3990846D01*
X2647927Y3824072D01*
X2767893Y3677893D01*
X2914072Y3557927D01*
X3080846Y3468784D01*
X3261807Y3413890D01*
X3402838Y3400000D01*
X3797162Y3400000D01*
X3938193Y3413890D01*
X4119154Y3468784D01*
X4285928Y3557927D01*
X4432107Y3677893D01*
X4552073Y3824072D01*
X4641216Y3990846D01*
X4696110Y4171807D01*
X4714645Y4360000D01*
X4696110Y4548193D01*
X4641216Y4729154D01*
X4552073Y4895928D01*
X4432107Y5042107D01*
X4285928Y5162073D01*
X4119154Y5251216D01*
X3938193Y5306110D01*
X3797162Y5320000D01*
X3402838Y5320000D01*
X3261807Y5306110D01*
X3080846Y5251216D01*
X2914072Y5162073D01*
X2767893Y5042107D01*
X2647927Y4895928D01*
X2558784Y4729154D01*
X2503890Y4548193D01*
X2485355Y4360000D01*
X-759496Y4360000D01*
X-759496Y4582174D01*
X-755820Y4619497D01*
X-759496Y4656820D01*
X-759496Y4656829D01*
X-770493Y4768482D01*
X-813950Y4911743D01*
X-846139Y4971964D01*
X-884522Y5043773D01*
X-955697Y5130499D01*
X-979495Y5159497D01*
X-1008492Y5183294D01*
X-3165000Y7339801D01*
X-3165000Y7401939D01*
X-3204774Y7601898D01*
X-3282795Y7790256D01*
X-3396063Y7959774D01*
X-3540226Y8103937D01*
X-3709744Y8217205D01*
X-3898102Y8295226D01*
X-4098061Y8335000D01*
X-4301939Y8335000D01*
X-4501898Y8295226D01*
X-4690256Y8217205D01*
X-4859774Y8103937D01*
X-5003937Y7959774D01*
X-5117205Y7790256D01*
X-5195226Y7601898D01*
X-5235000Y7401939D01*
X-5340000Y7401939D01*
X-5340000Y11927761D01*
X-5242252Y11830013D01*
X-4974463Y11651082D01*
X-4676912Y11527832D01*
X-4361033Y11465000D01*
X-4038967Y11465000D01*
X-3723088Y11527832D01*
X-3425537Y11651082D01*
X-3157748Y11830013D01*
X-2930013Y12057748D01*
X-2751082Y12325537D01*
X-2627832Y12623088D01*
X-2565000Y12938967D01*
X-2565000Y13261033D01*
X-2627832Y13576912D01*
X-2751082Y13874463D01*
X-2930013Y14142252D01*
X-3127761Y14340000D01*
X5340000Y14340000D01*
X5340001Y-3340000D01*
M02*
